<svg id="svg" version="1.1" xmlns="http://www.w3.org/2000/svg" xmlns:xlink="http://www.w3.org/1999/xlink" width="400" height="400" viewBox="0, 0, 400,400"><g id="svgg"><path id="path0" d="M266.827 77.368 C 266.568 77.680,265.061 78.158,263.478 78.430 C 261.895 78.702,260.292 79.189,259.915 79.511 C 259.522 79.847,257.480 80.309,255.115 80.595 C 252.852 80.870,250.370 81.343,249.600 81.647 C 247.277 82.565,216.671 82.441,213.268 81.500 C 209.770 80.533,190.660 80.462,187.985 81.405 C 187.041 81.738,184.094 82.197,181.435 82.425 C 178.344 82.690,176.023 83.106,175.000 83.579 C 174.120 83.986,172.230 84.441,170.800 84.590 C 169.370 84.739,167.915 85.117,167.567 85.431 C 167.219 85.745,165.899 86.194,164.633 86.428 C 163.368 86.662,161.768 87.196,161.079 87.615 C 160.390 88.034,159.061 88.492,158.126 88.632 C 157.191 88.772,156.219 89.136,155.966 89.441 C 155.714 89.745,154.769 90.193,153.867 90.436 C 152.966 90.678,151.793 91.220,151.260 91.639 C 150.728 92.057,149.991 92.400,149.624 92.400 C 149.256 92.400,148.358 92.841,147.628 93.379 C 146.899 93.918,145.802 94.468,145.192 94.602 C 144.582 94.736,143.776 95.185,143.400 95.600 C 143.024 96.015,142.196 96.469,141.559 96.609 C 140.921 96.749,140.400 97.039,140.400 97.254 C 140.400 97.469,139.609 97.995,138.643 98.422 C 137.676 98.850,136.782 99.470,136.655 99.800 C 136.529 100.130,136.161 100.400,135.837 100.400 C 135.514 100.400,134.658 100.940,133.936 101.600 C 133.213 102.260,132.423 102.800,132.181 102.800 C 131.938 102.800,131.317 103.250,130.800 103.800 C 130.283 104.350,129.720 104.800,129.548 104.800 C 129.377 104.800,128.801 105.205,128.269 105.700 C 127.737 106.195,126.727 107.050,126.024 107.600 C 124.040 109.153,112.815 120.324,110.591 122.959 C 109.496 124.257,108.195 125.750,107.700 126.277 C 107.205 126.805,106.800 127.400,106.800 127.600 C 106.800 127.800,106.395 128.377,105.899 128.882 C 105.404 129.387,104.775 130.300,104.503 130.911 C 104.230 131.522,103.735 132.127,103.403 132.254 C 103.072 132.381,102.800 132.723,102.800 133.012 C 102.800 133.302,102.375 134.047,101.855 134.669 C 101.335 135.291,100.790 136.181,100.645 136.647 C 100.499 137.113,100.024 137.816,99.590 138.209 C 99.155 138.602,98.800 139.139,98.800 139.402 C 98.800 139.665,98.263 140.672,97.607 141.640 C 96.951 142.608,96.411 143.687,96.407 144.038 C 96.403 144.389,96.050 144.993,95.623 145.379 C 95.195 145.766,94.726 146.649,94.579 147.341 C 94.433 148.034,94.000 148.960,93.616 149.400 C 93.233 149.840,92.685 151.071,92.397 152.136 C 92.110 153.201,91.652 154.159,91.379 154.263 C 91.106 154.368,90.765 155.239,90.621 156.199 C 90.477 157.158,90.038 158.361,89.645 158.872 C 89.252 159.382,88.721 160.866,88.465 162.169 C 88.209 163.472,87.746 164.822,87.436 165.169 C 87.127 165.516,86.750 166.880,86.599 168.200 C 86.448 169.520,85.992 171.320,85.586 172.200 C 85.180 173.080,84.655 175.568,84.419 177.730 C 84.178 179.938,83.685 182.216,83.295 182.930 C 82.228 184.880,82.239 217.318,83.307 219.925 C 85.173 224.480,85.302 261.753,83.461 264.563 C 83.126 265.074,82.726 266.607,82.572 267.968 C 82.418 269.329,81.956 271.101,81.546 271.906 C 80.575 273.811,80.456 282.574,81.377 284.356 C 81.695 284.970,82.168 286.716,82.430 288.236 C 82.691 289.756,83.127 291.130,83.398 291.289 C 83.668 291.448,84.122 292.438,84.405 293.489 C 84.688 294.540,85.232 295.760,85.614 296.200 C 85.996 296.640,86.443 297.450,86.609 298.000 C 86.774 298.550,87.335 299.509,87.855 300.131 C 88.375 300.753,88.800 301.447,88.800 301.673 C 88.800 301.899,89.248 302.650,89.796 303.342 C 90.345 304.034,91.110 305.025,91.496 305.544 C 93.687 308.484,97.488 312.560,99.027 313.619 C 100.002 314.290,100.800 314.990,100.800 315.176 C 100.800 315.361,101.250 315.626,101.800 315.764 C 102.350 315.902,102.800 316.174,102.800 316.367 C 102.800 316.561,103.541 317.105,104.446 317.577 C 105.352 318.049,106.355 318.697,106.675 319.018 C 106.995 319.338,107.479 319.600,107.751 319.600 C 108.022 319.600,108.855 320.050,109.600 320.600 C 110.345 321.150,111.346 321.600,111.824 321.600 C 112.301 321.600,113.132 321.946,113.669 322.368 C 114.206 322.791,115.755 323.338,117.111 323.584 C 118.467 323.830,120.257 324.326,121.088 324.687 C 123.321 325.657,131.306 325.649,133.110 324.676 C 133.830 324.287,135.434 323.782,136.673 323.553 C 137.912 323.324,139.346 322.861,139.860 322.524 C 140.374 322.187,142.280 321.747,144.097 321.546 C 145.914 321.345,148.210 320.870,149.200 320.490 C 151.980 319.424,177.160 319.451,179.122 320.522 C 182.906 322.587,216.862 322.694,221.639 320.654 C 222.430 320.317,224.575 319.853,226.405 319.623 C 228.234 319.394,230.135 318.941,230.629 318.618 C 231.123 318.294,232.579 317.854,233.864 317.639 C 235.149 317.425,236.913 316.878,237.785 316.425 C 238.656 315.971,239.738 315.600,240.188 315.600 C 240.638 315.600,241.815 315.176,242.803 314.658 C 243.791 314.140,245.195 313.603,245.923 313.463 C 246.651 313.324,247.512 312.945,247.837 312.620 C 248.161 312.296,249.048 311.859,249.807 311.649 C 250.566 311.439,251.665 310.893,252.248 310.434 C 252.831 309.975,253.599 309.597,253.954 309.593 C 254.309 309.589,255.392 309.049,256.360 308.393 C 257.328 307.737,258.335 307.200,258.598 307.200 C 258.861 307.200,259.402 306.840,259.800 306.400 C 260.198 305.960,260.752 305.600,261.031 305.600 C 261.310 305.600,262.047 305.175,262.669 304.655 C 263.291 304.135,264.205 303.583,264.700 303.428 C 265.195 303.273,265.600 303.012,265.600 302.849 C 265.600 302.686,266.815 301.756,268.300 300.783 C 269.785 299.810,271.235 298.695,271.523 298.307 C 271.810 297.918,272.240 297.600,272.477 297.600 C 272.714 297.600,273.305 297.195,273.791 296.700 C 274.276 296.205,275.737 294.900,277.037 293.800 C 281.063 290.393,286.271 285.166,289.493 281.300 C 291.189 279.265,292.695 277.600,292.840 277.600 C 292.984 277.600,293.327 277.060,293.600 276.400 C 293.873 275.740,294.252 275.200,294.440 275.200 C 294.629 275.200,295.151 274.480,295.600 273.600 C 296.049 272.720,296.559 272.000,296.734 272.000 C 296.909 272.000,297.352 271.370,297.719 270.600 C 298.087 269.830,298.550 269.200,298.750 269.200 C 298.950 269.200,299.227 268.745,299.367 268.190 C 299.506 267.634,299.972 266.828,300.401 266.399 C 300.830 265.970,301.464 265.029,301.809 264.309 C 302.153 263.589,302.957 262.100,303.594 261.000 C 304.911 258.726,305.345 257.860,305.952 256.300 C 306.188 255.695,306.531 255.200,306.714 255.200 C 306.898 255.200,307.277 254.310,307.555 253.223 C 307.834 252.136,308.306 251.044,308.605 250.796 C 308.904 250.548,309.272 249.772,309.423 249.072 C 309.575 248.373,310.126 246.991,310.649 246.003 C 311.172 245.015,311.600 243.838,311.600 243.388 C 311.600 242.938,311.958 241.866,312.396 241.007 C 312.835 240.148,313.388 238.355,313.625 237.022 C 313.863 235.690,314.320 234.193,314.641 233.696 C 314.961 233.199,315.407 231.327,315.632 229.535 C 315.856 227.744,316.311 225.631,316.641 224.839 C 316.977 224.036,317.413 221.013,317.628 218.000 C 317.841 215.030,318.190 211.070,318.404 209.200 C 318.905 204.826,318.908 197.498,318.411 194.077 C 318.197 192.604,317.843 188.838,317.624 185.706 C 317.351 181.799,317.014 179.601,316.551 178.706 C 314.778 175.276,314.807 141.074,316.587 137.507 C 316.940 136.799,317.403 134.990,317.616 133.487 C 317.829 131.983,318.313 130.179,318.691 129.476 C 319.657 127.684,319.660 119.674,318.697 117.488 C 318.331 116.657,317.829 114.857,317.582 113.488 C 317.336 112.120,316.895 110.730,316.604 110.400 C 316.313 110.070,315.873 109.043,315.626 108.117 C 315.380 107.191,314.988 106.316,314.756 106.173 C 314.524 106.029,313.984 105.167,313.556 104.256 C 312.578 102.175,311.179 99.882,310.287 98.896 C 309.909 98.478,309.600 97.936,309.600 97.691 C 309.600 97.446,309.282 97.010,308.893 96.723 C 308.504 96.435,307.850 95.674,307.438 95.030 C 305.731 92.361,298.006 85.778,295.101 84.517 C 294.489 84.251,293.881 83.756,293.751 83.417 C 293.621 83.078,293.199 82.800,292.813 82.800 C 292.427 82.800,291.476 82.369,290.699 81.841 C 289.922 81.314,288.735 80.761,288.062 80.614 C 287.388 80.466,286.417 80.014,285.903 79.609 C 285.389 79.205,284.075 78.748,282.984 78.593 C 281.893 78.438,280.212 77.971,279.249 77.556 C 276.978 76.576,267.602 76.434,266.827 77.368 M259.314 112.729 C 259.603 112.969,260.641 113.293,261.620 113.450 C 263.459 113.743,268.800 116.232,268.800 116.795 C 268.800 116.970,269.205 117.220,269.700 117.352 C 272.021 117.966,280.800 126.864,280.800 128.602 C 280.800 128.863,281.160 129.402,281.600 129.800 C 282.040 130.198,282.400 130.728,282.400 130.977 C 282.400 131.227,282.774 132.144,283.232 133.015 C 285.674 137.668,285.854 144.252,283.717 150.800 C 282.133 155.655,281.834 181.980,283.332 184.737 C 285.181 188.138,285.295 215.114,283.476 218.663 C 283.156 219.288,282.767 220.970,282.613 222.400 C 282.459 223.830,281.999 225.659,281.591 226.465 C 281.183 227.271,280.726 228.621,280.576 229.465 C 280.425 230.309,279.971 231.630,279.567 232.400 C 279.162 233.170,278.643 234.544,278.413 235.453 C 278.183 236.363,277.737 237.320,277.423 237.581 C 277.109 237.842,276.726 238.626,276.573 239.324 C 276.420 240.021,275.868 241.151,275.347 241.834 C 274.826 242.517,274.400 243.363,274.400 243.714 C 274.400 244.065,274.217 244.466,273.992 244.605 C 273.768 244.743,273.135 245.744,272.586 246.828 C 272.036 247.913,271.410 248.800,271.193 248.800 C 270.977 248.800,270.800 249.045,270.800 249.345 C 270.800 249.866,269.647 251.545,267.428 254.255 C 266.862 254.945,266.400 255.622,266.400 255.759 C 266.400 256.450,254.271 268.800,253.592 268.800 C 253.396 268.800,252.801 269.205,252.269 269.700 C 250.055 271.760,246.021 274.800,245.503 274.800 C 245.290 274.800,244.581 275.250,243.927 275.800 C 243.273 276.350,242.504 276.800,242.218 276.800 C 241.932 276.800,241.482 277.061,241.217 277.380 C 240.952 277.698,240.086 278.174,239.291 278.436 C 238.496 278.699,237.504 279.231,237.088 279.619 C 236.671 280.007,235.671 280.447,234.865 280.597 C 234.059 280.748,233.094 281.197,232.720 281.597 C 232.347 281.996,231.288 282.450,230.369 282.605 C 229.449 282.761,228.135 283.217,227.449 283.620 C 226.762 284.023,225.210 284.476,224.000 284.628 C 222.790 284.780,221.510 285.156,221.154 285.464 C 220.795 285.777,218.847 286.205,216.754 286.431 C 214.690 286.654,212.010 287.143,210.800 287.518 C 207.581 288.516,193.101 288.510,190.200 287.511 C 184.502 285.546,160.095 285.587,155.533 287.568 C 154.580 287.982,152.810 288.448,151.600 288.604 C 150.390 288.759,149.066 289.182,148.657 289.543 C 147.607 290.472,141.386 290.477,139.973 289.551 C 139.428 289.193,138.176 288.769,137.191 288.608 C 136.206 288.447,135.040 287.995,134.600 287.604 C 134.160 287.212,133.350 286.757,132.800 286.591 C 132.250 286.426,131.291 285.865,130.669 285.345 C 130.047 284.825,129.399 284.400,129.228 284.400 C 129.057 284.400,128.396 283.947,127.758 283.393 C 127.121 282.839,125.933 281.804,125.118 281.093 C 124.304 280.382,123.629 279.569,123.618 279.287 C 123.608 279.006,123.353 278.680,123.050 278.564 C 122.559 278.375,121.699 277.197,118.534 272.378 C 118.020 271.597,117.600 270.729,117.600 270.450 C 117.600 270.171,117.156 269.186,116.614 268.261 C 114.831 265.218,114.856 254.561,116.654 251.102 C 118.181 248.166,118.094 217.906,116.545 213.400 C 115.533 210.454,115.512 192.293,116.518 189.553 C 116.890 188.538,117.367 186.045,117.578 184.014 C 117.788 181.983,118.226 179.914,118.552 179.417 C 118.878 178.920,119.352 177.363,119.605 175.957 C 119.859 174.550,120.311 173.127,120.610 172.794 C 120.909 172.461,121.326 171.422,121.536 170.486 C 121.746 169.550,122.180 168.382,122.499 167.892 C 122.818 167.401,123.309 166.280,123.590 165.400 C 123.871 164.520,124.330 163.530,124.611 163.200 C 124.891 162.870,125.415 161.970,125.774 161.200 C 127.213 158.120,128.342 156.146,128.955 155.637 C 129.310 155.343,129.600 154.880,129.600 154.608 C 129.600 154.140,132.487 150.070,134.754 147.341 C 135.329 146.649,136.519 145.209,137.399 144.141 C 139.131 142.039,146.042 135.215,146.450 135.206 C 146.587 135.203,147.397 134.551,148.250 133.758 C 149.763 132.351,151.864 130.809,153.915 129.600 C 154.475 129.270,155.218 128.763,155.566 128.473 C 156.888 127.375,159.822 125.614,160.342 125.607 C 160.640 125.603,161.419 125.150,162.073 124.600 C 162.727 124.050,163.663 123.600,164.153 123.600 C 164.643 123.600,165.655 123.150,166.400 122.600 C 167.145 122.050,168.071 121.600,168.457 121.600 C 168.842 121.600,170.004 121.150,171.038 120.600 C 172.073 120.050,173.390 119.600,173.965 119.600 C 174.541 119.600,175.685 119.239,176.508 118.798 C 177.330 118.357,179.308 117.813,180.902 117.589 C 182.496 117.365,184.610 116.871,185.600 116.491 C 187.496 115.763,196.411 115.640,223.200 115.971 C 234.621 116.112,243.877 115.556,245.291 114.644 C 245.791 114.322,247.365 113.850,248.789 113.595 C 250.212 113.341,251.832 112.873,252.389 112.556 C 253.555 111.892,258.452 112.014,259.314 112.729 " stroke="none" fill="#a2e905" fill-rule="evenodd"></path><path id="path1" d="M0.000 200.000 L 0.000 400.000 200.000 400.000 L 400.000 400.000 400.000 200.000 L 400.000 0.000 200.000 0.000 L 0.000 0.000 0.000 200.000 M282.357 76.305 C 282.972 76.760,284.316 77.258,285.343 77.412 C 286.369 77.566,287.643 78.033,288.172 78.450 C 288.702 78.866,289.686 79.317,290.359 79.452 C 291.031 79.586,291.790 79.947,292.044 80.253 C 292.298 80.559,293.292 81.157,294.253 81.582 C 295.214 82.007,296.000 82.545,296.000 82.778 C 296.000 83.010,296.278 83.200,296.618 83.200 C 296.958 83.200,297.642 83.605,298.137 84.100 C 298.633 84.595,299.524 85.221,300.119 85.491 C 300.714 85.762,301.200 86.162,301.200 86.381 C 301.200 86.600,301.695 87.037,302.300 87.352 C 303.841 88.154,308.800 92.981,308.800 93.679 C 308.800 93.996,309.250 94.647,309.800 95.125 C 310.350 95.603,310.800 96.247,310.800 96.555 C 310.800 96.862,311.072 97.219,311.403 97.346 C 311.735 97.473,312.230 98.075,312.503 98.683 C 312.777 99.291,313.310 100.102,313.690 100.484 C 314.069 100.867,314.498 101.649,314.642 102.223 C 314.786 102.798,315.330 103.694,315.852 104.215 C 316.434 104.798,316.800 105.634,316.800 106.382 C 316.800 107.052,316.975 107.600,317.190 107.600 C 317.801 107.600,318.800 109.831,318.800 111.196 C 318.800 111.876,319.205 112.980,319.700 113.649 C 321.299 115.809,321.253 131.733,319.643 133.461 C 319.128 134.014,318.856 135.205,318.659 137.770 C 318.496 139.891,318.068 142.036,317.593 143.108 C 316.341 145.939,316.378 171.276,317.638 173.879 C 318.257 175.158,318.529 176.679,318.679 179.705 C 318.825 182.657,319.109 184.286,319.697 185.542 C 321.289 188.944,321.117 216.433,319.488 218.924 C 319.128 219.474,318.842 221.311,318.720 223.861 C 318.567 227.061,318.343 228.231,317.663 229.383 C 317.185 230.193,316.800 231.527,316.800 232.373 C 316.800 234.639,316.396 236.253,315.620 237.086 C 315.214 237.522,314.830 238.789,314.689 240.162 C 314.536 241.640,314.164 242.810,313.675 243.349 C 313.250 243.817,312.801 245.008,312.677 245.996 C 312.542 247.064,312.142 248.042,311.690 248.408 C 311.253 248.761,310.830 249.760,310.697 250.751 C 310.570 251.701,310.091 252.878,309.633 253.365 C 309.175 253.853,308.800 254.631,308.800 255.095 C 308.800 255.559,308.373 256.447,307.852 257.069 C 307.330 257.691,306.780 258.766,306.629 259.459 C 306.478 260.151,306.015 261.024,305.600 261.400 C 305.185 261.776,304.731 262.606,304.590 263.245 C 304.450 263.884,303.990 264.591,303.567 264.817 C 303.145 265.043,302.800 265.568,302.800 265.983 C 302.800 266.399,302.350 267.273,301.800 267.927 C 301.250 268.581,300.800 269.302,300.800 269.529 C 300.800 269.757,300.485 270.255,300.100 270.636 C 299.715 271.018,299.040 271.902,298.600 272.602 C 296.334 276.207,295.876 276.800,295.360 276.800 C 295.052 276.800,294.800 277.151,294.800 277.580 C 294.800 278.009,294.564 278.504,294.276 278.680 C 293.988 278.856,293.447 279.445,293.075 279.990 C 291.377 282.474,281.462 292.781,278.058 295.600 C 277.394 296.150,276.301 297.095,275.629 297.700 C 274.957 298.305,274.148 298.800,273.831 298.800 C 273.513 298.800,273.143 299.151,273.006 299.580 C 272.870 300.008,272.403 300.472,271.967 300.611 C 271.531 300.749,270.738 301.298,270.205 301.831 C 269.672 302.364,269.056 302.800,268.836 302.800 C 268.616 302.800,267.986 303.250,267.436 303.800 C 266.886 304.350,266.087 304.800,265.661 304.800 C 265.235 304.800,264.781 305.072,264.654 305.403 C 264.527 305.735,263.922 306.223,263.311 306.488 C 262.700 306.752,261.691 307.381,261.069 307.884 C 260.447 308.388,259.636 308.800,259.266 308.800 C 258.895 308.800,258.378 309.144,258.115 309.564 C 257.853 309.984,257.045 310.458,256.319 310.616 C 255.594 310.774,254.491 311.330,253.869 311.852 C 253.247 312.373,252.286 312.800,251.733 312.800 C 251.181 312.800,250.428 313.171,250.060 313.625 C 249.657 314.123,248.718 314.541,247.696 314.678 C 246.763 314.803,246.000 315.071,246.000 315.273 C 246.000 315.814,243.417 316.800,242.000 316.800 C 241.307 316.800,240.680 317.048,240.555 317.372 C 240.278 318.096,238.289 318.800,236.524 318.800 C 235.772 318.800,234.660 319.175,234.028 319.643 C 233.238 320.227,232.047 320.552,230.144 320.705 C 228.347 320.849,227.042 321.189,226.364 321.690 C 225.568 322.279,224.272 322.531,220.764 322.780 C 218.254 322.958,215.434 323.395,214.497 323.751 C 210.759 325.172,187.761 324.978,185.500 323.506 C 184.920 323.128,183.076 322.843,180.317 322.704 C 177.050 322.539,175.606 322.280,174.226 321.613 C 172.052 320.560,164.554 320.613,158.000 321.726 C 155.910 322.081,151.950 322.493,149.200 322.642 C 145.274 322.854,143.971 323.072,143.135 323.659 C 142.529 324.083,140.980 324.519,139.545 324.669 C 137.681 324.864,136.844 325.151,136.346 325.766 C 135.261 327.105,119.075 327.049,117.250 325.700 C 116.580 325.205,115.602 324.800,115.076 324.800 C 113.713 324.800,111.699 324.035,111.466 323.429 C 111.358 323.145,110.539 322.797,109.647 322.654 C 108.669 322.498,107.867 322.099,107.627 321.650 C 107.408 321.241,106.696 320.799,106.045 320.669 C 105.394 320.539,104.532 320.102,104.131 319.698 C 103.729 319.294,102.905 318.751,102.300 318.490 C 101.695 318.230,101.200 317.743,101.200 317.409 C 101.200 317.074,100.910 316.800,100.555 316.800 C 99.385 316.800,91.200 309.256,91.200 308.178 C 91.200 307.939,90.750 307.353,90.200 306.875 C 89.650 306.397,89.200 305.777,89.200 305.499 C 89.200 305.220,88.840 304.768,88.400 304.493 C 87.960 304.218,87.600 303.739,87.600 303.427 C 87.600 303.116,87.162 302.340,86.626 301.704 C 86.090 301.067,85.534 300.076,85.390 299.502 C 85.246 298.928,84.884 298.364,84.586 298.250 C 84.288 298.136,83.824 297.268,83.554 296.321 C 83.285 295.375,82.750 294.240,82.366 293.800 C 81.982 293.360,81.536 292.100,81.374 291.000 C 81.212 289.900,80.827 288.816,80.519 288.591 C 78.916 287.418,78.752 271.303,80.317 268.650 C 80.885 267.687,81.264 265.976,81.561 263.025 C 81.796 260.693,82.260 258.257,82.594 257.612 C 83.480 255.898,83.484 233.853,82.598 230.964 C 82.256 229.846,81.815 225.813,81.576 221.600 C 81.344 217.530,80.891 212.979,80.569 211.487 C 79.838 208.095,79.742 194.181,80.434 191.800 C 80.690 190.920,80.973 189.210,81.065 188.000 C 81.651 180.219,81.997 177.485,82.469 176.918 C 82.761 176.567,83.200 174.684,83.444 172.734 C 83.697 170.710,84.149 168.889,84.496 168.494 C 84.831 168.112,85.228 166.774,85.378 165.521 C 85.529 164.267,85.975 162.827,86.370 162.321 C 86.765 161.814,87.212 160.558,87.364 159.528 C 87.516 158.499,87.977 157.229,88.387 156.707 C 88.798 156.185,89.261 155.047,89.417 154.179 C 89.572 153.310,90.006 152.240,90.381 151.800 C 90.757 151.360,91.285 150.225,91.554 149.279 C 91.824 148.332,92.283 147.466,92.575 147.354 C 92.867 147.242,93.217 146.452,93.354 145.597 C 93.491 144.743,93.938 143.809,94.347 143.522 C 94.757 143.235,95.217 142.434,95.369 141.741 C 95.521 141.049,95.995 140.166,96.423 139.779 C 96.850 139.393,97.200 138.859,97.200 138.593 C 97.200 138.327,97.740 137.431,98.400 136.600 C 99.060 135.769,99.600 134.846,99.600 134.548 C 99.600 134.251,99.960 133.782,100.400 133.507 C 100.840 133.232,101.200 132.723,101.200 132.376 C 101.200 132.028,101.740 131.139,102.400 130.400 C 103.060 129.661,103.600 128.882,103.600 128.670 C 103.600 128.302,103.885 127.959,106.196 125.554 C 106.748 124.979,107.200 124.369,107.200 124.198 C 107.200 122.919,122.108 107.966,126.548 104.792 C 127.619 104.026,128.899 102.995,129.393 102.500 C 129.887 102.005,130.468 101.600,130.684 101.600 C 130.900 101.600,131.419 101.215,131.838 100.745 C 132.257 100.274,133.185 99.642,133.900 99.339 C 134.615 99.037,135.200 98.624,135.200 98.422 C 135.200 98.219,135.561 97.939,136.002 97.799 C 136.443 97.659,137.298 97.132,137.902 96.627 C 138.506 96.122,139.450 95.573,140.000 95.405 C 140.550 95.238,141.329 94.756,141.731 94.334 C 142.132 93.913,142.978 93.464,143.610 93.338 C 144.242 93.212,145.063 92.772,145.434 92.362 C 145.806 91.951,146.703 91.504,147.429 91.368 C 148.154 91.232,149.054 90.782,149.429 90.368 C 149.803 89.954,150.760 89.500,151.555 89.358 C 152.350 89.217,153.360 88.778,153.800 88.383 C 154.240 87.988,155.320 87.534,156.200 87.374 C 157.080 87.215,158.203 86.771,158.695 86.388 C 159.188 86.005,160.441 85.565,161.479 85.409 C 162.518 85.253,163.774 84.806,164.270 84.416 C 164.767 84.026,166.232 83.587,167.528 83.440 C 168.823 83.293,170.547 82.835,171.358 82.421 C 172.248 81.967,174.215 81.554,176.316 81.379 C 178.236 81.219,180.202 80.824,180.699 80.498 C 182.837 79.098,209.182 78.823,225.025 80.037 C 233.459 80.683,253.780 79.634,256.140 78.431 C 256.919 78.033,258.642 77.585,259.969 77.435 C 261.295 77.285,262.657 76.886,262.996 76.547 C 264.592 74.951,280.260 74.755,282.357 76.305 M251.800 114.683 C 250.280 114.776,249.233 115.050,248.945 115.430 C 248.292 116.291,246.189 116.800,243.289 116.800 C 241.647 116.800,240.430 117.024,239.787 117.445 C 237.316 119.064,212.527 119.056,208.050 117.434 C 205.672 116.573,194.495 116.524,192.864 117.367 C 191.613 118.014,186.506 118.800,183.555 118.800 C 182.178 118.800,181.227 119.052,180.457 119.621 C 179.769 120.130,178.442 120.530,176.973 120.673 C 175.480 120.818,174.295 121.180,173.777 121.649 C 173.325 122.059,172.065 122.514,170.977 122.662 C 169.766 122.825,168.802 123.208,168.489 123.649 C 168.207 124.044,167.307 124.485,166.489 124.629 C 165.670 124.772,164.820 125.110,164.600 125.379 C 164.059 126.042,162.590 126.800,161.844 126.800 C 161.510 126.800,160.786 127.250,160.236 127.800 C 159.686 128.350,158.901 128.800,158.490 128.800 C 158.080 128.800,157.353 129.250,156.875 129.800 C 156.397 130.350,155.742 130.800,155.421 130.800 C 155.099 130.800,154.387 131.205,153.837 131.700 C 151.665 133.657,150.062 134.800,149.492 134.800 C 149.163 134.800,148.799 135.159,148.685 135.598 C 148.570 136.037,148.172 136.513,147.800 136.655 C 146.932 136.988,139.030 144.824,138.428 145.948 C 138.177 146.416,137.708 146.800,137.386 146.800 C 137.064 146.800,136.800 147.154,136.800 147.586 C 136.800 148.018,136.447 148.561,136.016 148.791 C 135.585 149.022,134.935 149.838,134.571 150.605 C 134.207 151.372,133.752 152.000,133.560 152.000 C 133.368 152.000,132.948 152.630,132.626 153.400 C 132.304 154.170,131.762 154.800,131.420 154.800 C 131.022 154.800,130.800 155.165,130.800 155.818 C 130.800 156.378,130.373 157.263,129.852 157.785 C 129.330 158.306,128.786 159.202,128.642 159.777 C 128.498 160.351,128.024 161.176,127.590 161.610 C 127.155 162.045,126.800 162.679,126.800 163.020 C 126.800 163.840,125.671 166.000,125.242 166.000 C 125.057 166.000,124.806 166.738,124.685 167.639 C 124.565 168.541,124.114 169.666,123.684 170.139 C 123.254 170.613,122.803 171.793,122.681 172.761 C 122.559 173.730,122.116 174.990,121.695 175.561 C 121.211 176.219,120.838 177.598,120.678 179.322 C 120.539 180.820,120.076 182.710,119.648 183.522 C 118.492 185.717,117.742 199.972,118.355 208.075 C 118.600 211.306,118.800 215.815,118.800 218.095 C 118.800 220.375,118.979 222.419,119.197 222.637 C 120.550 223.990,120.821 242.498,119.525 245.000 C 119.146 245.732,118.828 247.704,118.710 250.057 C 118.554 253.155,118.347 254.151,117.658 255.119 C 116.429 256.845,116.382 263.942,117.589 265.477 C 118.024 266.030,118.500 267.138,118.647 267.941 C 118.795 268.743,119.339 269.909,119.858 270.531 C 120.376 271.153,120.800 272.001,120.800 272.417 C 120.800 272.832,121.158 273.363,121.595 273.597 C 122.033 273.832,122.498 274.451,122.629 274.974 C 122.760 275.496,123.302 276.333,123.834 276.832 C 124.365 277.331,124.800 277.983,124.800 278.280 C 124.800 278.577,125.250 278.991,125.800 279.200 C 126.350 279.409,126.800 279.739,126.800 279.933 C 126.800 280.394,130.891 283.448,131.966 283.789 C 132.425 283.935,132.800 284.289,132.800 284.576 C 132.800 284.874,133.476 285.206,134.378 285.350 C 135.274 285.493,136.195 285.943,136.508 286.390 C 137.728 288.132,150.083 288.137,152.296 286.396 C 152.946 285.885,154.251 285.592,156.709 285.407 C 158.629 285.262,160.920 284.850,161.800 284.492 C 164.597 283.353,181.438 283.257,183.731 284.367 C 187.367 286.127,213.616 286.184,217.088 284.440 C 217.920 284.022,219.770 283.559,221.200 283.410 C 222.630 283.261,224.340 282.812,225.000 282.412 C 225.660 282.012,226.995 281.555,227.967 281.396 C 228.938 281.237,230.074 280.789,230.491 280.401 C 230.908 280.012,231.935 279.585,232.773 279.451 C 233.611 279.317,234.521 278.936,234.796 278.605 C 235.070 278.274,235.991 277.795,236.841 277.540 C 237.691 277.286,238.688 276.745,239.056 276.339 C 239.423 275.932,240.031 275.600,240.407 275.600 C 240.783 275.600,241.769 275.060,242.600 274.400 C 243.431 273.740,244.346 273.200,244.635 273.200 C 244.924 273.200,245.304 272.954,245.480 272.654 C 245.656 272.354,246.340 271.832,247.001 271.495 C 247.661 271.158,248.544 270.503,248.963 270.041 C 249.382 269.578,250.056 269.200,250.462 269.200 C 250.868 269.200,251.200 268.935,251.200 268.610 C 251.200 268.286,251.718 267.753,252.352 267.425 C 252.985 267.098,253.609 266.553,253.739 266.215 C 253.869 265.877,254.167 265.600,254.401 265.600 C 254.635 265.600,256.337 264.025,258.183 262.100 C 260.029 260.175,261.886 258.240,262.310 257.800 C 262.734 257.360,263.294 256.595,263.554 256.100 C 263.815 255.605,264.292 255.200,264.614 255.200 C 264.936 255.200,265.200 254.955,265.200 254.655 C 265.200 254.114,266.792 251.807,268.331 250.118 C 268.773 249.633,269.264 248.823,269.422 248.318 C 269.580 247.813,270.135 246.891,270.655 246.269 C 271.175 245.647,271.600 244.893,271.600 244.592 C 271.600 244.291,271.933 243.810,272.339 243.523 C 272.746 243.235,273.203 242.330,273.355 241.511 C 273.507 240.693,273.957 239.793,274.355 239.511 C 274.753 239.230,275.200 238.343,275.350 237.541 C 275.499 236.738,275.961 235.648,276.378 235.119 C 276.794 234.590,277.256 233.447,277.404 232.579 C 277.553 231.710,277.986 230.550,278.367 230.000 C 278.748 229.450,279.262 227.764,279.509 226.254 C 279.756 224.744,280.218 223.214,280.536 222.854 C 280.895 222.447,281.276 220.503,281.546 217.701 C 281.784 215.226,282.253 212.670,282.589 212.021 C 283.495 210.269,283.484 193.310,282.576 191.554 C 282.211 190.849,281.723 187.993,281.399 184.674 C 281.095 181.553,280.660 178.280,280.432 177.400 C 279.788 174.905,279.884 160.785,280.559 158.714 C 280.866 157.771,281.234 155.200,281.377 153.000 C 281.583 149.837,281.815 148.754,282.485 147.826 C 283.746 146.081,283.756 137.834,282.500 136.236 C 282.041 135.653,281.546 134.462,281.398 133.588 C 281.250 132.715,280.985 132.000,280.809 132.000 C 280.632 132.000,280.107 131.190,279.642 130.200 C 279.177 129.210,278.646 128.400,278.462 128.400 C 278.279 128.400,277.942 127.990,277.713 127.489 C 276.854 125.604,273.521 122.109,271.100 120.553 C 270.275 120.023,269.600 119.412,269.600 119.195 C 269.600 118.978,269.232 118.800,268.782 118.800 C 268.332 118.800,267.540 118.376,267.022 117.858 C 266.503 117.340,265.485 116.797,264.759 116.652 C 264.033 116.507,263.070 116.052,262.619 115.643 C 261.735 114.838,256.630 114.385,251.800 114.683 " stroke="none" fill="#2c2c24" fill-rule="evenodd"></path><path id="path2" d="M273.600 75.996 C 285.273 76.700,303.600 86.486,308.040 94.385 C 308.539 95.273,309.076 96.000,309.234 96.000 C 309.392 96.000,309.944 96.661,310.460 97.470 C 310.977 98.278,311.879 99.673,312.464 100.570 C 313.049 101.466,314.126 103.335,314.857 104.721 C 315.588 106.108,316.252 107.044,316.333 106.801 C 316.414 106.558,316.012 105.684,315.440 104.858 C 314.868 104.032,314.400 103.205,314.400 103.020 C 314.400 102.682,311.805 98.617,311.019 97.724 C 310.789 97.462,310.150 96.584,309.600 95.772 C 306.539 91.256,298.324 84.286,292.800 81.518 C 292.030 81.133,291.130 80.649,290.800 80.444 C 286.343 77.671,279.784 75.890,273.600 75.773 L 268.200 75.671 273.600 75.996 M264.200 76.800 C 263.320 77.225,262.240 77.593,261.800 77.618 C 261.329 77.645,261.214 77.749,261.522 77.872 C 261.809 77.987,263.069 77.712,264.322 77.261 C 265.575 76.809,266.960 76.362,267.400 76.266 C 267.915 76.155,267.773 76.081,267.000 76.060 C 266.340 76.042,265.080 76.375,264.200 76.800 M257.400 78.818 C 256.300 79.230,255.760 79.560,256.200 79.552 C 256.640 79.544,257.900 79.206,259.000 78.800 C 260.100 78.394,260.640 78.064,260.200 78.066 C 259.760 78.068,258.500 78.406,257.400 78.818 M195.700 79.899 C 198.285 79.968,202.515 79.968,205.100 79.899 C 207.685 79.829,205.570 79.772,200.400 79.772 C 195.230 79.772,193.115 79.829,195.700 79.899 M252.700 79.882 C 253.195 79.978,254.005 79.978,254.500 79.882 C 254.995 79.787,254.590 79.709,253.600 79.709 C 252.610 79.709,252.205 79.787,252.700 79.882 M184.400 80.409 C 183.630 80.583,181.830 80.940,180.400 81.201 C 173.835 82.398,170.841 83.104,166.600 84.451 C 165.280 84.870,163.220 85.487,162.023 85.822 C 160.826 86.156,159.656 86.580,159.423 86.763 C 159.190 86.946,158.280 87.317,157.400 87.588 C 156.520 87.859,154.910 88.513,153.821 89.041 C 152.733 89.568,151.653 90.004,151.421 90.009 C 151.190 90.014,150.550 90.387,150.000 90.838 C 148.880 91.757,148.980 91.735,151.800 90.441 C 156.383 88.338,157.976 87.713,164.600 85.419 C 169.526 83.713,183.962 80.713,189.400 80.266 C 190.280 80.194,189.830 80.125,188.400 80.113 C 186.970 80.102,185.170 80.235,184.400 80.409 M211.400 80.271 C 212.280 80.346,215.566 80.676,218.702 81.004 C 226.581 81.828,239.178 81.781,246.200 80.901 C 249.280 80.516,251.290 80.142,250.667 80.070 C 250.044 79.999,247.336 80.224,244.650 80.570 C 238.476 81.366,227.079 81.382,220.200 80.604 C 217.340 80.280,213.830 80.042,212.400 80.075 C 210.774 80.112,210.400 80.186,211.400 80.271 M146.344 92.579 C 145.552 93.118,144.443 93.674,143.881 93.815 C 143.319 93.957,142.548 94.416,142.167 94.836 C 141.787 95.256,141.289 95.600,141.060 95.600 C 140.830 95.600,140.003 96.021,139.222 96.536 C 138.440 97.051,137.278 97.816,136.640 98.236 C 136.003 98.656,135.091 99.270,134.614 99.600 C 134.138 99.930,133.212 100.560,132.558 101.000 C 125.122 106.000,113.344 117.009,108.600 123.393 C 108.160 123.985,107.434 124.859,106.987 125.335 C 106.540 125.811,105.820 126.720,105.387 127.356 C 104.954 127.992,104.240 129.011,103.800 129.620 C 101.878 132.282,99.726 135.447,99.461 136.000 C 99.304 136.330,98.555 137.590,97.798 138.800 C 97.041 140.010,96.071 141.745,95.644 142.656 C 95.216 143.567,94.685 144.424,94.464 144.561 C 94.243 144.697,93.945 145.339,93.803 145.986 C 93.661 146.633,93.208 147.590,92.797 148.113 C 92.386 148.635,91.930 149.589,91.784 150.232 C 91.637 150.874,92.620 149.254,93.968 146.632 C 105.681 123.843,124.458 104.319,144.600 93.984 C 148.056 92.211,148.976 91.638,148.393 91.619 C 148.059 91.609,147.137 92.041,146.344 92.579 M316.403 107.720 C 316.401 107.896,316.679 108.580,317.021 109.240 C 319.840 114.692,320.973 126.053,319.200 131.096 C 318.270 133.741,318.140 135.372,319.047 133.000 C 320.247 129.865,320.483 127.845,320.326 122.053 C 320.208 117.753,319.999 115.881,319.537 115.000 C 319.191 114.340,318.694 112.890,318.432 111.777 C 318.023 110.034,316.410 106.810,316.403 107.720 M251.800 113.796 C 249.883 114.276,249.959 114.288,253.624 114.094 C 257.675 113.879,262.579 114.503,263.600 115.363 C 263.930 115.641,264.830 116.116,265.600 116.420 C 266.956 116.953,268.366 117.789,271.121 119.689 C 273.473 121.312,276.959 124.959,278.692 127.611 C 279.622 129.035,280.544 130.392,280.740 130.627 C 280.935 130.862,281.336 131.762,281.631 132.627 C 281.925 133.492,282.381 134.470,282.645 134.800 C 282.908 135.130,283.317 136.210,283.552 137.200 L 283.981 139.000 283.773 137.220 C 283.658 136.241,283.409 135.251,283.218 135.020 C 283.027 134.789,282.548 133.791,282.153 132.802 C 280.586 128.878,275.417 122.181,272.400 120.165 C 271.630 119.650,270.280 118.718,269.400 118.094 C 263.879 114.178,256.991 112.496,251.800 113.796 M246.000 115.425 C 245.230 115.716,243.880 115.979,243.000 116.009 C 242.120 116.039,241.638 116.158,241.928 116.274 C 242.788 116.618,246.650 116.000,247.455 115.390 C 248.359 114.705,247.871 114.717,246.000 115.425 M198.713 116.295 C 199.876 116.376,201.676 116.376,202.713 116.293 C 203.751 116.211,202.800 116.145,200.600 116.146 C 198.400 116.147,197.551 116.214,198.713 116.295 M191.700 116.687 C 192.305 116.778,193.295 116.778,193.900 116.687 C 194.505 116.595,194.010 116.520,192.800 116.520 C 191.590 116.520,191.095 116.595,191.700 116.687 M206.691 116.689 C 207.401 116.777,208.661 116.779,209.491 116.692 C 210.321 116.605,209.740 116.533,208.200 116.531 C 206.660 116.529,205.981 116.600,206.691 116.689 M238.700 116.682 C 239.195 116.778,240.005 116.778,240.500 116.682 C 240.995 116.587,240.590 116.509,239.600 116.509 C 238.610 116.509,238.205 116.587,238.700 116.682 M187.901 117.032 C 187.773 117.160,186.348 117.517,184.734 117.825 L 181.800 118.385 184.535 118.157 C 187.833 117.882,191.415 116.905,189.367 116.840 C 188.688 116.818,188.029 116.905,187.901 117.032 M212.200 117.271 C 213.905 117.900,234.998 117.929,236.600 117.304 C 237.577 116.924,237.056 116.889,233.800 117.118 C 228.665 117.480,220.550 117.478,215.200 117.114 C 211.931 116.892,211.266 116.927,212.200 117.271 M178.364 119.196 C 178.015 119.401,176.845 119.756,175.764 119.987 C 173.214 120.531,167.094 122.993,169.400 122.547 C 170.060 122.419,171.320 121.984,172.200 121.580 C 173.080 121.176,174.940 120.586,176.334 120.268 C 177.728 119.951,179.069 119.491,179.314 119.246 C 179.851 118.709,179.251 118.678,178.364 119.196 M165.600 123.868 C 164.610 124.395,164.250 124.707,164.800 124.560 C 166.551 124.093,167.515 123.662,167.785 123.225 C 168.156 122.624,167.661 122.769,165.600 123.868 M162.200 125.529 C 158.977 127.292,156.574 128.788,152.000 131.883 C 146.347 135.707,136.724 145.571,132.200 152.178 C 129.916 155.515,130.446 155.332,132.848 151.954 C 136.700 146.540,143.512 139.179,148.170 135.400 C 148.983 134.740,149.956 133.930,150.331 133.600 C 150.706 133.270,151.546 132.654,152.196 132.232 C 152.847 131.810,153.564 131.310,153.790 131.122 C 154.015 130.933,155.100 130.217,156.200 129.529 C 157.300 128.842,158.830 127.875,159.600 127.380 C 160.370 126.885,161.389 126.365,161.864 126.225 C 162.339 126.084,162.946 125.706,163.213 125.385 C 163.796 124.681,163.735 124.690,162.200 125.529 M317.673 137.103 C 316.717 141.809,316.714 141.834,317.148 141.210 C 317.596 140.567,318.587 135.253,318.311 134.977 C 318.217 134.883,317.930 135.840,317.673 137.103 M284.000 141.545 C 284.000 144.372,283.402 147.747,282.601 149.447 C 282.277 150.133,281.929 152.293,281.826 154.247 L 281.640 157.800 281.996 154.759 C 282.192 153.087,282.740 150.567,283.214 149.159 C 284.038 146.712,284.827 139.200,284.259 139.200 C 284.116 139.200,284.000 140.255,284.000 141.545 M316.509 143.600 C 316.509 144.590,316.587 144.995,316.682 144.500 C 316.778 144.005,316.778 143.195,316.682 142.700 C 316.587 142.205,316.509 142.610,316.509 143.600 M316.178 158.200 C 316.178 165.020,316.232 167.866,316.299 164.525 C 316.366 161.184,316.366 155.604,316.299 152.125 C 316.233 148.646,316.178 151.380,316.178 158.200 M90.731 152.712 C 90.385 153.311,89.873 154.520,89.591 155.400 C 89.309 156.280,88.854 157.360,88.579 157.800 C 88.304 158.240,87.950 159.230,87.794 160.000 C 87.637 160.770,87.187 162.120,86.792 163.000 C 86.397 163.880,85.885 165.631,85.653 166.890 C 85.421 168.150,84.967 169.691,84.644 170.315 C 84.321 170.940,83.961 172.609,83.844 174.025 L 83.631 176.600 84.021 174.400 C 84.236 173.190,84.757 171.120,85.179 169.800 C 88.102 160.657,88.888 158.284,89.811 155.809 C 90.384 154.274,91.046 152.785,91.283 152.500 C 91.520 152.214,91.634 151.901,91.536 151.803 C 91.438 151.705,91.076 152.114,90.731 152.712 M129.175 156.833 C 128.639 157.723,127.817 159.044,127.349 159.771 C 126.881 160.497,126.287 161.731,126.029 162.514 C 125.770 163.296,125.298 164.152,124.980 164.417 C 124.661 164.682,124.400 165.198,124.400 165.564 C 124.400 165.931,124.026 166.944,123.570 167.815 C 122.209 170.413,120.691 174.999,119.009 181.600 L 118.754 182.600 119.343 181.589 C 119.667 181.032,120.140 179.432,120.394 178.032 C 120.648 176.632,121.106 175.105,121.412 174.638 C 121.718 174.171,122.167 172.859,122.411 171.721 C 122.655 170.583,123.099 169.450,123.397 169.203 C 123.694 168.956,124.166 167.864,124.445 166.777 C 124.723 165.690,125.082 164.800,125.243 164.800 C 125.403 164.800,125.854 163.945,126.246 162.900 C 126.637 161.855,127.192 160.856,127.479 160.680 C 127.765 160.504,128.000 160.130,128.000 159.849 C 128.000 159.567,128.562 158.488,129.249 157.451 C 129.936 156.414,130.420 155.487,130.324 155.391 C 130.229 155.295,129.711 155.944,129.175 156.833 M280.993 162.978 C 280.836 165.716,280.862 170.531,281.053 173.678 C 281.383 179.118,281.400 178.873,281.400 168.700 C 281.400 162.815,281.373 158.000,281.340 158.000 C 281.307 158.000,281.151 160.240,280.993 162.978 M316.453 172.827 C 316.424 173.612,316.695 175.232,317.055 176.427 C 317.415 177.622,317.856 179.590,318.035 180.800 C 318.338 182.841,318.348 182.792,318.180 180.125 C 318.081 178.543,317.791 176.743,317.537 176.125 C 317.283 175.506,316.947 174.190,316.791 173.200 C 316.519 171.479,316.505 171.463,316.453 172.827 M82.862 178.496 C 82.568 179.433,82.251 181.190,82.158 182.400 C 82.013 184.296,82.100 184.103,82.788 181.000 C 83.664 177.049,83.700 175.827,82.862 178.496 M281.720 181.600 C 281.720 182.810,281.795 183.305,281.887 182.700 C 281.978 182.095,281.978 181.105,281.887 180.500 C 281.795 179.895,281.720 180.390,281.720 181.600 M118.220 185.066 C 118.084 186.350,117.709 188.956,117.387 190.857 C 117.064 192.759,116.821 195.009,116.846 195.857 L 116.892 197.400 117.220 195.800 C 117.708 193.427,118.844 183.111,118.641 182.908 C 118.545 182.812,118.355 183.783,118.220 185.066 M318.501 185.000 C 318.505 185.880,318.587 186.193,318.683 185.695 C 318.779 185.198,318.775 184.478,318.675 184.095 C 318.575 183.713,318.496 184.120,318.501 185.000 M282.032 184.774 C 282.014 185.310,282.261 186.840,282.580 188.174 C 282.898 189.508,283.237 190.960,283.333 191.400 C 283.447 191.923,283.521 191.784,283.547 191.000 C 283.569 190.340,283.244 188.450,282.825 186.800 C 282.407 185.150,282.050 184.238,282.032 184.774 M81.731 187.400 C 81.733 188.940,81.805 189.521,81.892 188.691 C 81.979 187.861,81.977 186.601,81.889 185.891 C 81.800 185.181,81.729 185.860,81.731 187.400 M318.996 188.600 C 319.905 197.205,319.909 206.846,319.006 215.000 C 318.820 216.678,318.855 216.839,319.223 216.000 C 320.530 213.025,320.527 190.602,319.220 187.600 C 318.854 186.761,318.818 186.923,318.996 188.600 M81.060 194.061 C 80.750 198.423,80.794 206.375,81.147 210.000 C 81.286 211.430,81.405 207.605,81.412 201.500 C 81.418 195.395,81.400 190.400,81.372 190.400 C 81.343 190.400,81.203 192.048,81.060 194.061 M283.531 203.000 C 283.354 211.174,283.151 214.189,282.696 215.400 C 282.365 216.280,281.994 218.260,281.871 219.800 L 281.647 222.600 282.170 220.000 C 282.457 218.570,282.914 216.590,283.185 215.600 C 283.664 213.852,284.258 195.952,283.922 193.400 C 283.835 192.740,283.659 197.060,283.531 203.000 M116.531 201.400 C 116.533 202.940,116.605 203.521,116.692 202.691 C 116.779 201.861,116.777 200.601,116.689 199.891 C 116.600 199.181,116.529 199.860,116.531 201.400 M116.858 207.000 C 116.837 208.100,117.010 209.810,117.242 210.800 C 117.474 211.790,117.819 214.490,118.008 216.800 L 118.351 221.000 118.150 216.200 C 117.916 210.615,116.923 203.549,116.858 207.000 M81.731 215.400 C 81.733 216.940,81.805 217.521,81.892 216.691 C 81.979 215.861,81.977 214.601,81.889 213.891 C 81.800 213.181,81.729 213.860,81.731 215.400 M318.509 218.800 C 318.509 219.790,318.587 220.195,318.682 219.700 C 318.778 219.205,318.778 218.395,318.682 217.900 C 318.587 217.405,318.509 217.810,318.509 218.800 M82.050 220.030 C 82.023 221.036,82.265 223.466,82.590 225.430 C 82.914 227.393,83.254 229.540,83.344 230.200 C 83.434 230.860,83.428 230.050,83.330 228.400 C 83.062 223.896,82.114 217.698,82.050 220.030 M317.990 222.300 C 317.985 223.125,317.787 224.520,317.551 225.400 C 317.314 226.280,316.775 228.620,316.352 230.600 C 315.930 232.580,315.378 234.605,315.125 235.099 C 314.872 235.594,314.771 236.104,314.900 236.234 C 315.338 236.672,315.977 234.904,316.426 232.007 C 316.672 230.420,317.125 228.520,317.432 227.786 C 318.029 226.355,318.686 220.800,318.257 220.800 C 318.116 220.800,317.996 221.475,317.990 222.300 M118.528 224.000 C 118.528 225.430,118.601 226.015,118.689 225.300 C 118.778 224.585,118.778 223.415,118.689 222.700 C 118.601 221.985,118.528 222.570,118.528 224.000 M280.714 224.527 C 280.344 225.447,279.941 226.920,279.820 227.800 C 279.576 229.565,279.672 229.367,280.858 225.668 C 281.793 222.753,281.706 222.063,280.714 224.527 M118.918 234.400 C 118.914 241.068,118.952 241.492,119.305 238.692 C 119.560 236.674,119.561 234.079,119.310 231.292 L 118.922 227.000 118.918 234.400 M278.725 230.712 C 278.377 231.311,277.961 232.415,277.800 233.166 C 277.639 233.917,277.078 235.339,276.554 236.325 C 276.029 237.312,275.600 238.338,275.600 238.606 C 275.600 238.873,275.266 239.521,274.858 240.046 C 274.450 240.571,273.896 241.675,273.627 242.500 C 273.358 243.325,272.994 244.000,272.818 244.000 C 272.641 244.000,272.288 244.504,272.033 245.120 C 271.778 245.735,270.861 247.220,269.995 248.420 C 269.129 249.619,268.052 251.275,267.602 252.100 C 267.152 252.925,266.620 253.600,266.419 253.600 C 266.218 253.600,265.949 253.915,265.821 254.300 C 265.603 254.952,264.736 255.968,260.573 260.449 C 257.903 263.321,251.977 268.801,250.436 269.822 C 249.646 270.345,248.280 271.312,247.400 271.972 C 246.520 272.632,245.170 273.545,244.400 274.001 C 243.630 274.457,242.280 275.255,241.400 275.775 C 239.156 277.100,234.704 279.318,231.400 280.756 C 229.860 281.427,228.836 281.981,229.125 281.988 C 230.480 282.019,241.084 276.670,245.600 273.677 C 253.868 268.197,263.182 259.229,268.112 252.000 C 271.973 246.338,272.730 245.074,274.817 240.800 C 275.730 238.930,276.819 236.745,277.238 235.946 C 277.657 235.146,278.000 234.257,278.000 233.972 C 278.000 233.686,278.381 232.666,278.846 231.705 C 279.792 229.750,279.705 229.028,278.725 230.712 M83.778 244.400 C 83.778 251.330,83.833 254.165,83.899 250.700 C 83.966 247.235,83.966 241.565,83.899 238.100 C 83.833 234.635,83.778 237.470,83.778 244.400 M313.486 240.526 C 312.314 243.929,312.294 244.316,313.405 242.105 C 313.983 240.952,314.399 239.659,314.328 239.230 C 314.246 238.732,313.943 239.198,313.486 240.526 M118.524 244.600 C 118.526 245.920,118.601 246.412,118.690 245.693 C 118.779 244.974,118.777 243.894,118.686 243.293 C 118.595 242.692,118.522 243.280,118.524 244.600 M311.807 245.567 C 311.659 246.240,311.372 246.894,311.169 247.019 C 310.966 247.145,310.800 247.439,310.800 247.673 C 310.800 247.949,311.001 247.931,311.374 247.621 C 311.971 247.126,312.626 244.892,312.276 244.543 C 312.166 244.433,311.955 244.894,311.807 245.567 M118.000 248.810 C 118.000 249.695,117.620 251.450,117.156 252.710 C 116.522 254.432,116.283 256.141,116.192 259.600 L 116.071 264.200 116.369 259.600 C 116.567 256.544,116.896 254.560,117.350 253.689 C 118.027 252.388,118.753 247.200,118.258 247.200 C 118.116 247.200,118.000 247.924,118.000 248.810 M310.149 249.500 C 310.003 250.105,309.550 251.230,309.143 252.000 C 308.735 252.770,308.130 254.030,307.797 254.800 C 304.626 262.144,298.065 272.325,291.106 280.698 C 286.229 286.567,280.730 292.052,274.763 296.998 C 273.636 297.932,267.723 302.328,266.420 303.200 C 264.460 304.511,264.123 304.828,265.000 304.533 C 265.440 304.385,266.283 303.889,266.872 303.432 C 267.462 302.974,268.599 302.150,269.398 301.600 C 276.769 296.529,287.783 285.974,293.286 278.706 C 293.664 278.208,294.592 277.038,295.349 276.106 C 297.876 272.998,302.715 265.512,304.391 262.117 C 304.849 261.191,305.393 260.328,305.600 260.200 C 305.808 260.071,306.191 259.254,306.452 258.383 C 306.713 257.512,307.063 256.800,307.230 256.800 C 307.397 256.800,307.856 255.945,308.250 254.900 C 308.644 253.855,309.268 252.460,309.636 251.800 C 310.341 250.538,310.956 248.400,310.615 248.400 C 310.505 248.400,310.296 248.895,310.149 249.500 M82.476 262.200 C 81.967 265.060,81.202 268.303,80.776 269.408 C 80.349 270.512,80.021 271.952,80.046 272.608 C 80.078 273.409,80.151 273.538,80.270 273.000 C 80.367 272.560,80.711 271.390,81.033 270.400 C 81.876 267.815,83.657 258.797,83.518 257.824 C 83.453 257.371,82.984 259.340,82.476 262.200 M116.434 265.006 C 116.415 265.449,116.735 266.439,117.144 267.206 C 117.553 267.973,118.021 269.050,118.184 269.600 C 118.347 270.150,118.881 271.230,119.371 272.000 C 121.602 275.508,122.532 276.801,122.702 276.632 C 122.802 276.531,122.294 275.583,121.572 274.524 C 120.851 273.466,119.960 272.150,119.593 271.600 C 119.226 271.050,118.694 269.880,118.411 269.000 C 118.128 268.120,117.727 267.187,117.520 266.926 C 117.314 266.665,116.992 265.945,116.807 265.326 C 116.557 264.493,116.460 264.409,116.434 265.006 M79.751 278.400 C 79.751 280.930,79.816 281.965,79.896 280.700 C 79.975 279.435,79.975 277.365,79.896 276.100 C 79.816 274.835,79.751 275.870,79.751 278.400 M123.760 278.426 C 127.352 282.695,134.403 287.111,139.725 288.427 C 143.614 289.389,145.443 289.386,149.000 288.414 C 152.498 287.457,151.597 287.357,147.699 288.268 C 142.766 289.422,137.638 288.140,131.188 284.139 C 128.640 282.559,124.914 279.413,124.272 278.300 C 123.923 277.695,123.433 277.200,123.183 277.200 C 122.933 277.200,123.193 277.752,123.760 278.426 M226.122 282.599 C 225.652 282.929,224.577 283.361,223.733 283.559 C 222.633 283.818,222.483 283.926,223.200 283.944 C 223.750 283.957,225.190 283.532,226.400 283.000 C 227.636 282.456,228.245 282.025,227.789 282.016 C 227.343 282.007,226.593 282.270,226.122 282.599 M80.034 284.256 C 80.015 284.947,80.356 286.297,80.791 287.256 C 81.226 288.215,81.589 289.360,81.596 289.800 C 81.604 290.240,82.153 291.680,82.815 293.000 C 83.478 294.320,83.903 294.950,83.761 294.400 C 83.619 293.850,83.321 293.173,83.099 292.896 C 82.724 292.428,81.904 289.831,80.606 285.000 C 80.142 283.277,80.063 283.174,80.034 284.256 M218.200 284.787 C 214.682 286.051,201.770 287.008,195.696 286.457 C 189.174 285.865,187.077 285.957,192.000 286.620 C 197.571 287.370,203.330 287.302,211.000 286.395 C 216.914 285.696,224.141 284.043,221.200 284.063 C 220.650 284.066,219.300 284.393,218.200 284.787 M166.367 284.565 C 166.275 284.656,163.681 285.035,160.603 285.408 C 155.524 286.022,151.160 287.120,152.296 287.499 C 152.543 287.581,153.271 287.377,153.912 287.045 C 156.791 285.557,178.556 284.276,183.200 285.321 C 184.541 285.623,184.532 285.611,183.000 285.024 C 181.514 284.456,166.884 284.052,166.367 284.565 M185.500 285.882 C 185.995 285.978,186.805 285.978,187.300 285.882 C 187.795 285.787,187.390 285.709,186.400 285.709 C 185.410 285.709,185.005 285.787,185.500 285.882 M84.012 295.706 C 83.995 296.135,86.462 300.488,87.085 301.129 C 87.368 301.419,87.601 301.869,87.602 302.129 C 87.603 302.388,88.548 303.802,89.702 305.270 C 90.856 306.739,92.250 308.533,92.800 309.257 C 94.524 311.526,97.371 314.273,98.304 314.570 C 98.797 314.726,99.200 315.015,99.200 315.213 C 99.200 315.410,99.605 315.770,100.100 316.011 C 100.643 316.276,100.463 316.004,99.644 315.325 C 95.182 311.621,90.015 305.541,87.068 300.526 C 84.560 296.259,84.024 295.413,84.012 295.706 M263.200 305.400 C 262.926 305.730,262.494 306.000,262.240 306.000 C 261.986 306.000,261.344 306.315,260.814 306.700 C 259.555 307.613,253.395 311.038,251.600 311.823 C 250.830 312.159,249.297 312.877,248.194 313.417 C 247.091 313.958,245.916 314.400,245.583 314.400 C 245.250 314.400,244.566 314.689,244.061 315.042 C 243.557 315.395,242.662 315.845,242.072 316.042 C 241.120 316.361,241.153 316.378,242.374 316.196 C 243.129 316.083,244.029 315.754,244.374 315.464 C 244.718 315.175,245.810 314.709,246.800 314.430 C 247.790 314.150,248.870 313.692,249.200 313.411 C 249.530 313.131,250.461 312.689,251.268 312.430 C 252.075 312.171,252.943 311.710,253.196 311.405 C 253.448 311.101,254.161 310.740,254.778 310.605 C 255.396 310.469,256.499 309.918,257.228 309.379 C 257.958 308.841,258.757 308.400,259.002 308.400 C 259.248 308.400,259.798 308.085,260.225 307.700 C 260.651 307.315,261.675 306.688,262.500 306.306 C 263.325 305.925,264.000 305.430,264.000 305.206 C 264.000 304.645,263.783 304.697,263.200 305.400 M102.484 317.700 C 103.105 318.305,103.880 318.800,104.206 318.800 C 104.533 318.800,104.800 318.959,104.800 319.154 C 104.800 319.349,105.475 319.828,106.300 320.219 C 107.125 320.609,108.277 321.281,108.861 321.711 C 109.444 322.141,110.128 322.424,110.379 322.340 C 110.773 322.209,108.904 321.044,103.957 318.337 C 103.290 317.972,102.432 317.432,102.050 317.137 C 101.668 316.842,101.863 317.095,102.484 317.700 M238.000 317.400 C 237.450 317.714,236.565 317.978,236.033 317.986 C 235.502 317.994,235.178 318.112,235.315 318.248 C 235.691 318.625,238.160 318.066,239.031 317.408 C 240.019 316.660,239.304 316.654,238.000 317.400 M231.400 319.414 C 230.740 319.717,229.675 319.972,229.033 319.982 C 228.392 319.992,227.978 320.112,228.115 320.248 C 228.511 320.644,231.819 320.023,232.646 319.396 C 233.589 318.682,232.980 318.691,231.400 319.414 M158.517 320.697 C 160.011 320.774,162.351 320.774,163.717 320.696 C 165.082 320.618,163.860 320.555,161.000 320.555 C 158.140 320.556,157.022 320.620,158.517 320.697 M170.900 320.691 C 171.725 320.778,173.075 320.778,173.900 320.691 C 174.725 320.605,174.050 320.534,172.400 320.534 C 170.750 320.534,170.075 320.605,170.900 320.691 M152.189 321.035 C 151.964 321.130,150.164 321.458,148.189 321.765 C 146.215 322.072,145.230 322.339,146.000 322.359 C 147.573 322.400,155.224 321.309,155.534 321.000 C 155.774 320.759,152.773 320.791,152.189 321.035 M176.483 321.420 C 177.078 321.743,178.968 322.087,180.683 322.184 L 183.800 322.362 181.200 322.017 C 179.770 321.827,178.093 321.476,177.474 321.236 C 175.855 320.609,175.209 320.729,176.483 321.420 M223.644 321.233 C 223.117 321.444,221.497 321.785,220.044 321.991 L 217.400 322.365 220.313 322.179 C 221.914 322.076,223.804 321.739,224.513 321.429 C 225.941 320.803,225.158 320.627,223.644 321.233 M140.000 323.428 C 138.570 323.951,137.760 324.376,138.200 324.372 C 138.640 324.368,139.720 324.089,140.600 323.752 C 141.480 323.415,142.740 322.991,143.400 322.810 C 144.487 322.513,144.506 322.482,143.600 322.480 C 143.050 322.479,141.430 322.905,140.000 323.428 M185.105 322.683 C 185.602 322.779,186.322 322.775,186.705 322.675 C 187.087 322.575,186.680 322.496,185.800 322.501 C 184.920 322.505,184.607 322.587,185.105 322.683 M214.300 322.682 C 214.795 322.778,215.605 322.778,216.100 322.682 C 216.595 322.587,216.190 322.509,215.200 322.509 C 214.210 322.509,213.805 322.587,214.300 322.682 M112.720 323.299 C 113.006 323.646,114.176 324.150,115.320 324.419 C 116.464 324.687,117.940 325.198,118.600 325.554 C 120.670 326.668,133.678 326.467,135.785 325.287 C 137.756 324.184,137.086 324.141,134.400 325.200 C 129.957 326.951,118.093 325.809,113.103 323.150 C 112.301 322.723,112.258 322.739,112.720 323.299 M188.600 323.272 C 190.300 323.925,210.569 323.936,212.200 323.285 C 213.213 322.880,212.933 322.852,210.400 323.103 C 206.544 323.485,194.738 323.486,190.600 323.106 C 187.981 322.865,187.618 322.895,188.600 323.272 " stroke="none" fill="#597127" fill-rule="evenodd"></path><path id="path3" d="M266.400 76.575 C 265.410 76.889,263.610 77.429,262.400 77.775 C 261.190 78.121,259.390 78.672,258.400 78.998 C 251.560 81.256,230.103 82.291,218.683 80.915 C 209.448 79.802,189.779 79.912,183.200 81.113 C 174.849 82.637,168.166 84.184,164.600 85.419 C 157.635 87.831,155.862 88.533,151.122 90.750 C 149.649 91.439,148.029 92.193,147.522 92.426 C 147.015 92.658,145.764 93.332,144.741 93.924 C 143.719 94.516,141.991 95.485,140.901 96.077 C 136.182 98.640,126.746 105.608,121.233 110.600 C 113.144 117.925,106.192 126.361,98.981 137.600 C 96.889 140.860,93.969 146.475,90.972 153.000 C 90.038 155.034,88.226 160.023,87.051 163.800 C 86.434 165.780,85.594 168.480,85.184 169.800 C 84.774 171.120,84.325 172.920,84.187 173.800 C 84.048 174.680,83.510 177.560,82.992 180.200 C 80.831 191.195,80.873 211.391,83.084 224.800 C 85.053 236.741,83.836 262.725,80.945 270.449 C 79.984 273.017,79.740 281.474,80.535 284.600 C 81.561 288.629,82.632 292.158,83.084 293.000 C 83.321 293.440,84.092 294.970,84.799 296.400 C 88.910 304.718,100.414 318.000,103.508 318.000 C 103.719 318.000,104.353 318.363,104.917 318.806 C 111.992 324.372,127.455 327.738,134.464 325.238 C 141.176 322.845,143.916 322.233,154.400 320.785 C 158.957 320.156,174.382 320.310,176.636 321.008 C 190.608 325.330,219.747 323.667,237.400 317.539 C 238.060 317.310,239.648 316.781,240.930 316.363 C 242.211 315.945,243.646 315.333,244.119 315.002 C 244.591 314.671,245.250 314.400,245.583 314.400 C 245.916 314.400,247.091 313.958,248.194 313.417 C 249.297 312.877,250.830 312.159,251.600 311.823 C 253.395 311.038,259.555 307.613,260.814 306.700 C 261.344 306.315,261.920 306.000,262.092 306.000 C 262.265 306.000,263.104 305.505,263.956 304.900 C 264.808 304.295,265.913 303.530,266.411 303.200 C 280.052 294.159,293.687 279.628,302.445 264.800 C 304.275 261.701,307.082 256.458,307.797 254.800 C 308.130 254.030,308.762 252.734,309.201 251.921 C 309.640 251.107,310.000 250.250,310.000 250.016 C 310.000 249.783,310.356 248.828,310.792 247.896 C 311.802 245.734,313.050 242.170,314.047 238.600 C 314.477 237.060,314.986 235.513,315.178 235.163 C 315.371 234.813,315.826 232.933,316.191 230.986 C 316.556 229.038,317.017 227.143,317.214 226.773 C 317.679 225.905,319.176 213.976,319.590 207.844 C 320.146 199.603,318.583 180.998,316.931 176.200 C 315.765 172.812,315.870 144.293,317.066 139.600 C 317.543 137.730,318.051 135.570,318.196 134.800 C 318.341 134.030,318.806 132.364,319.229 131.098 C 321.771 123.508,318.815 110.140,312.479 100.570 C 311.886 99.673,310.977 98.278,310.460 97.470 C 309.944 96.661,309.392 96.000,309.234 96.000 C 309.076 96.000,308.539 95.273,308.040 94.385 C 305.245 89.412,292.007 80.611,282.686 77.529 C 278.209 76.049,269.644 75.547,266.400 76.575 M279.249 77.556 C 280.212 77.971,281.893 78.438,282.984 78.593 C 284.075 78.748,285.389 79.205,285.903 79.609 C 286.417 80.014,287.388 80.466,288.062 80.614 C 288.735 80.761,289.922 81.314,290.699 81.841 C 291.476 82.369,292.427 82.800,292.813 82.800 C 293.199 82.800,293.621 83.078,293.751 83.417 C 293.881 83.756,294.489 84.251,295.101 84.517 C 298.006 85.778,305.731 92.361,307.438 95.030 C 307.850 95.674,308.504 96.435,308.893 96.723 C 309.282 97.010,309.600 97.446,309.600 97.691 C 309.600 97.936,309.909 98.478,310.287 98.896 C 311.179 99.882,312.578 102.175,313.556 104.256 C 313.984 105.167,314.524 106.029,314.756 106.173 C 314.988 106.316,315.380 107.191,315.626 108.117 C 315.873 109.043,316.313 110.070,316.604 110.400 C 316.895 110.730,317.336 112.120,317.582 113.488 C 317.829 114.857,318.331 116.657,318.697 117.488 C 319.660 119.674,319.657 127.684,318.691 129.476 C 318.313 130.179,317.829 131.983,317.616 133.487 C 317.403 134.990,316.940 136.799,316.587 137.507 C 314.807 141.074,314.778 175.276,316.551 178.706 C 317.014 179.601,317.351 181.799,317.624 185.706 C 317.843 188.838,318.197 192.604,318.411 194.077 C 318.908 197.498,318.905 204.826,318.404 209.200 C 318.190 211.070,317.841 215.030,317.628 218.000 C 317.413 221.013,316.977 224.036,316.641 224.839 C 316.311 225.631,315.856 227.744,315.632 229.535 C 315.407 231.327,314.961 233.199,314.641 233.696 C 314.320 234.193,313.863 235.690,313.625 237.022 C 313.388 238.355,312.835 240.148,312.396 241.007 C 311.958 241.866,311.600 242.938,311.600 243.388 C 311.600 243.838,311.172 245.015,310.649 246.003 C 310.126 246.991,309.575 248.373,309.423 249.072 C 309.272 249.772,308.904 250.548,308.605 250.796 C 308.306 251.044,307.834 252.136,307.555 253.223 C 307.277 254.310,306.898 255.200,306.714 255.200 C 306.531 255.200,306.188 255.695,305.952 256.300 C 305.345 257.860,304.911 258.726,303.594 261.000 C 302.957 262.100,302.153 263.589,301.809 264.309 C 301.464 265.029,300.830 265.970,300.401 266.399 C 299.972 266.828,299.506 267.634,299.367 268.190 C 299.227 268.745,298.950 269.200,298.750 269.200 C 298.550 269.200,298.087 269.830,297.719 270.600 C 297.352 271.370,296.909 272.000,296.734 272.000 C 296.559 272.000,296.049 272.720,295.600 273.600 C 295.151 274.480,294.629 275.200,294.440 275.200 C 294.252 275.200,293.873 275.740,293.600 276.400 C 293.327 277.060,292.984 277.600,292.840 277.600 C 292.695 277.600,291.189 279.265,289.493 281.300 C 286.271 285.166,281.063 290.393,277.037 293.800 C 275.737 294.900,274.276 296.205,273.791 296.700 C 273.305 297.195,272.714 297.600,272.477 297.600 C 272.240 297.600,271.810 297.918,271.523 298.307 C 271.235 298.695,269.785 299.810,268.300 300.783 C 266.815 301.756,265.600 302.686,265.600 302.849 C 265.600 303.012,265.195 303.273,264.700 303.428 C 264.205 303.583,263.291 304.135,262.669 304.655 C 262.047 305.175,261.310 305.600,261.031 305.600 C 260.752 305.600,260.198 305.960,259.800 306.400 C 259.402 306.840,258.861 307.200,258.598 307.200 C 258.335 307.200,257.328 307.737,256.360 308.393 C 255.392 309.049,254.309 309.589,253.954 309.593 C 253.599 309.597,252.831 309.975,252.248 310.434 C 251.665 310.893,250.566 311.439,249.807 311.649 C 249.048 311.859,248.161 312.296,247.837 312.620 C 247.512 312.945,246.651 313.324,245.923 313.463 C 245.195 313.603,243.791 314.140,242.803 314.658 C 241.815 315.176,240.638 315.600,240.188 315.600 C 239.738 315.600,238.656 315.971,237.785 316.425 C 236.913 316.878,235.149 317.425,233.864 317.639 C 232.579 317.854,231.123 318.294,230.629 318.618 C 230.135 318.941,228.234 319.394,226.405 319.623 C 224.575 319.853,222.430 320.317,221.639 320.654 C 216.862 322.694,182.906 322.587,179.122 320.522 C 177.160 319.451,151.980 319.424,149.200 320.490 C 148.210 320.870,145.914 321.345,144.097 321.546 C 142.280 321.747,140.374 322.187,139.860 322.524 C 139.346 322.861,137.912 323.324,136.673 323.553 C 135.434 323.782,133.830 324.287,133.110 324.676 C 131.306 325.649,123.321 325.657,121.088 324.687 C 120.257 324.326,118.467 323.830,117.111 323.584 C 115.755 323.338,114.206 322.791,113.669 322.368 C 113.132 321.946,112.301 321.600,111.824 321.600 C 111.346 321.600,110.345 321.150,109.600 320.600 C 108.855 320.050,108.022 319.600,107.751 319.600 C 107.479 319.600,106.995 319.338,106.675 319.018 C 106.355 318.697,105.352 318.049,104.446 317.577 C 103.541 317.105,102.800 316.561,102.800 316.367 C 102.800 316.174,102.350 315.902,101.800 315.764 C 101.250 315.626,100.800 315.361,100.800 315.176 C 100.800 314.990,100.002 314.290,99.027 313.619 C 97.488 312.560,93.687 308.484,91.496 305.544 C 91.110 305.025,90.345 304.034,89.796 303.342 C 89.248 302.650,88.800 301.899,88.800 301.673 C 88.800 301.447,88.375 300.753,87.855 300.131 C 87.335 299.509,86.774 298.550,86.609 298.000 C 86.443 297.450,85.996 296.640,85.614 296.200 C 85.232 295.760,84.688 294.540,84.405 293.489 C 84.122 292.438,83.668 291.448,83.398 291.289 C 83.127 291.130,82.691 289.756,82.430 288.236 C 82.168 286.716,81.695 284.970,81.377 284.356 C 80.456 282.574,80.575 273.811,81.546 271.906 C 81.956 271.101,82.418 269.329,82.572 267.968 C 82.726 266.607,83.126 265.074,83.461 264.563 C 85.302 261.753,85.173 224.480,83.307 219.925 C 82.239 217.318,82.228 184.880,83.295 182.930 C 83.685 182.216,84.178 179.938,84.419 177.730 C 84.655 175.568,85.180 173.080,85.586 172.200 C 85.992 171.320,86.448 169.520,86.599 168.200 C 86.750 166.880,87.127 165.516,87.436 165.169 C 87.746 164.822,88.209 163.472,88.465 162.169 C 88.721 160.866,89.252 159.382,89.645 158.872 C 90.038 158.361,90.477 157.158,90.621 156.199 C 90.765 155.239,91.106 154.368,91.379 154.263 C 91.652 154.159,92.110 153.201,92.397 152.136 C 92.685 151.071,93.233 149.840,93.616 149.400 C 94.000 148.960,94.433 148.034,94.579 147.341 C 94.726 146.649,95.195 145.766,95.623 145.379 C 96.050 144.993,96.403 144.389,96.407 144.038 C 96.411 143.687,96.951 142.608,97.607 141.640 C 98.263 140.672,98.800 139.665,98.800 139.402 C 98.800 139.139,99.155 138.602,99.590 138.209 C 100.024 137.816,100.499 137.113,100.645 136.647 C 100.790 136.181,101.335 135.291,101.855 134.669 C 102.375 134.047,102.800 133.302,102.800 133.012 C 102.800 132.723,103.072 132.381,103.403 132.254 C 103.735 132.127,104.230 131.522,104.503 130.911 C 104.775 130.300,105.404 129.387,105.899 128.882 C 106.395 128.377,106.800 127.800,106.800 127.600 C 106.800 127.400,107.205 126.805,107.700 126.277 C 108.195 125.750,109.496 124.257,110.591 122.959 C 112.815 120.324,124.040 109.153,126.024 107.600 C 126.727 107.050,127.737 106.195,128.269 105.700 C 128.801 105.205,129.377 104.800,129.548 104.800 C 129.720 104.800,130.283 104.350,130.800 103.800 C 131.317 103.250,131.938 102.800,132.181 102.800 C 132.423 102.800,133.213 102.260,133.936 101.600 C 134.658 100.940,135.514 100.400,135.837 100.400 C 136.161 100.400,136.529 100.130,136.655 99.800 C 136.782 99.470,137.676 98.850,138.643 98.422 C 139.609 97.995,140.400 97.469,140.400 97.254 C 140.400 97.039,140.921 96.749,141.559 96.609 C 142.196 96.469,143.024 96.015,143.400 95.600 C 143.776 95.185,144.582 94.736,145.192 94.602 C 145.802 94.468,146.899 93.918,147.628 93.379 C 148.358 92.841,149.256 92.400,149.624 92.400 C 149.991 92.400,150.728 92.057,151.260 91.639 C 151.793 91.220,152.966 90.678,153.867 90.436 C 154.769 90.193,155.714 89.745,155.966 89.441 C 156.219 89.136,157.191 88.772,158.126 88.632 C 159.061 88.492,160.390 88.034,161.079 87.615 C 161.768 87.196,163.368 86.662,164.633 86.428 C 165.899 86.194,167.219 85.745,167.567 85.431 C 167.915 85.117,169.370 84.739,170.800 84.590 C 172.230 84.441,174.120 83.986,175.000 83.579 C 176.023 83.106,178.344 82.690,181.435 82.425 C 184.094 82.197,187.041 81.738,187.985 81.405 C 190.660 80.462,209.770 80.533,213.268 81.500 C 216.671 82.441,247.277 82.565,249.600 81.647 C 250.370 81.343,252.852 80.870,255.115 80.595 C 257.480 80.309,259.522 79.847,259.915 79.511 C 260.292 79.189,261.895 78.702,263.478 78.430 C 265.061 78.158,266.568 77.680,266.827 77.368 C 267.602 76.434,276.978 76.576,279.249 77.556 M252.389 112.556 C 251.832 112.873,250.212 113.341,248.789 113.595 C 247.365 113.850,245.791 114.322,245.291 114.644 C 243.877 115.556,234.621 116.112,223.200 115.971 C 196.411 115.640,187.496 115.763,185.600 116.491 C 184.610 116.871,182.496 117.365,180.902 117.589 C 179.308 117.813,177.330 118.357,176.508 118.798 C 175.685 119.239,174.541 119.600,173.965 119.600 C 173.390 119.600,172.073 120.050,171.038 120.600 C 170.004 121.150,168.842 121.600,168.457 121.600 C 168.071 121.600,167.145 122.050,166.400 122.600 C 165.655 123.150,164.643 123.600,164.153 123.600 C 163.663 123.600,162.727 124.050,162.073 124.600 C 161.419 125.150,160.640 125.603,160.342 125.607 C 159.822 125.614,156.888 127.375,155.566 128.473 C 155.218 128.763,154.475 129.270,153.915 129.600 C 151.864 130.809,149.763 132.351,148.250 133.758 C 147.397 134.551,146.587 135.203,146.450 135.206 C 146.042 135.215,139.131 142.039,137.399 144.141 C 136.519 145.209,135.329 146.649,134.754 147.341 C 132.487 150.070,129.600 154.140,129.600 154.608 C 129.600 154.880,129.310 155.343,128.955 155.637 C 128.342 156.146,127.213 158.120,125.774 161.200 C 125.415 161.970,124.891 162.870,124.611 163.200 C 124.330 163.530,123.871 164.520,123.590 165.400 C 123.309 166.280,122.818 167.401,122.499 167.892 C 122.180 168.382,121.746 169.550,121.536 170.486 C 121.326 171.422,120.909 172.461,120.610 172.794 C 120.311 173.127,119.859 174.550,119.605 175.957 C 119.352 177.363,118.878 178.920,118.552 179.417 C 118.226 179.914,117.788 181.983,117.578 184.014 C 117.367 186.045,116.890 188.538,116.518 189.553 C 115.512 192.293,115.533 210.454,116.545 213.400 C 118.094 217.906,118.181 248.166,116.654 251.102 C 114.856 254.561,114.831 265.218,116.614 268.261 C 117.156 269.186,117.600 270.171,117.600 270.450 C 117.600 270.729,118.020 271.597,118.534 272.378 C 121.699 277.197,122.559 278.375,123.050 278.564 C 123.353 278.680,123.608 279.006,123.618 279.287 C 123.629 279.569,124.304 280.382,125.118 281.093 C 125.933 281.804,127.121 282.839,127.758 283.393 C 128.396 283.947,129.057 284.400,129.228 284.400 C 129.399 284.400,130.047 284.825,130.669 285.345 C 131.291 285.865,132.250 286.426,132.800 286.591 C 133.350 286.757,134.160 287.212,134.600 287.604 C 135.040 287.995,136.206 288.447,137.191 288.608 C 138.176 288.769,139.428 289.193,139.973 289.551 C 141.386 290.477,147.607 290.472,148.657 289.543 C 149.066 289.182,150.390 288.759,151.600 288.604 C 152.810 288.448,154.580 287.982,155.533 287.568 C 160.095 285.587,184.502 285.546,190.200 287.511 C 193.101 288.510,207.581 288.516,210.800 287.518 C 212.010 287.143,214.690 286.654,216.754 286.431 C 218.847 286.205,220.795 285.777,221.154 285.464 C 221.510 285.156,222.790 284.780,224.000 284.628 C 225.210 284.476,226.762 284.023,227.449 283.620 C 228.135 283.217,229.449 282.761,230.369 282.605 C 231.288 282.450,232.347 281.996,232.720 281.597 C 233.094 281.197,234.059 280.748,234.865 280.597 C 235.671 280.447,236.671 280.007,237.088 279.619 C 237.504 279.231,238.496 278.699,239.291 278.436 C 240.086 278.174,240.952 277.698,241.217 277.380 C 241.482 277.061,241.932 276.800,242.218 276.800 C 242.504 276.800,243.273 276.350,243.927 275.800 C 244.581 275.250,245.290 274.800,245.503 274.800 C 246.021 274.800,250.055 271.760,252.269 269.700 C 252.801 269.205,253.396 268.800,253.592 268.800 C 254.271 268.800,266.400 256.450,266.400 255.759 C 266.400 255.622,266.862 254.945,267.428 254.255 C 269.647 251.545,270.800 249.866,270.800 249.345 C 270.800 249.045,270.977 248.800,271.193 248.800 C 271.410 248.800,272.036 247.913,272.586 246.828 C 273.135 245.744,273.768 244.743,273.992 244.605 C 274.217 244.466,274.400 244.065,274.400 243.714 C 274.400 243.363,274.826 242.517,275.347 241.834 C 275.868 241.151,276.420 240.021,276.573 239.324 C 276.726 238.626,277.109 237.842,277.423 237.581 C 277.737 237.320,278.183 236.363,278.413 235.453 C 278.643 234.544,279.162 233.170,279.567 232.400 C 279.971 231.630,280.425 230.309,280.576 229.465 C 280.726 228.621,281.183 227.271,281.591 226.465 C 281.999 225.659,282.459 223.830,282.613 222.400 C 282.767 220.970,283.156 219.288,283.476 218.663 C 285.295 215.114,285.181 188.138,283.332 184.737 C 281.834 181.980,282.133 155.655,283.717 150.800 C 285.854 144.252,285.674 137.668,283.232 133.015 C 282.774 132.144,282.400 131.227,282.400 130.977 C 282.400 130.728,282.040 130.198,281.600 129.800 C 281.160 129.402,280.800 128.863,280.800 128.602 C 280.800 126.864,272.021 117.966,269.700 117.352 C 269.205 117.220,268.800 116.970,268.800 116.795 C 268.800 116.232,263.459 113.743,261.620 113.450 C 260.641 113.293,259.603 112.969,259.314 112.729 C 258.452 112.014,253.555 111.892,252.389 112.556 M259.503 113.805 C 262.755 114.422,266.528 116.057,269.400 118.094 C 270.280 118.718,271.630 119.650,272.400 120.165 C 275.417 122.181,280.586 128.878,282.153 132.802 C 282.548 133.791,283.023 134.783,283.208 135.007 C 284.618 136.715,284.616 144.998,283.203 149.191 C 280.871 156.114,280.704 178.190,282.919 186.800 C 284.112 191.439,284.247 211.704,283.114 216.000 C 282.737 217.430,282.226 219.769,281.979 221.197 C 281.732 222.626,281.304 224.336,281.028 224.997 C 280.752 225.659,280.301 227.140,280.026 228.288 C 279.751 229.436,279.183 231.050,278.763 231.873 C 278.343 232.696,278.000 233.622,278.000 233.930 C 278.000 234.239,277.657 235.146,277.238 235.946 C 276.819 236.745,275.730 238.930,274.817 240.800 C 272.730 245.074,271.973 246.338,268.112 252.000 C 260.283 263.480,245.200 275.628,232.400 280.762 C 229.502 281.924,225.745 283.260,224.200 283.677 C 223.320 283.914,221.433 284.460,220.007 284.890 C 211.285 287.517,190.431 287.679,182.103 285.184 C 178.886 284.220,156.706 285.566,154.262 286.874 C 143.158 292.817,128.483 286.647,119.500 272.258 C 118.895 271.289,118.400 270.357,118.400 270.187 C 118.400 270.016,117.907 268.870,117.305 267.639 C 115.796 264.554,115.683 256.916,117.086 252.800 C 119.196 246.610,119.256 219.505,117.179 210.581 C 115.017 201.294,118.603 177.296,123.570 167.815 C 124.026 166.944,124.400 165.931,124.400 165.564 C 124.400 165.198,124.661 164.682,124.980 164.417 C 125.298 164.152,125.768 163.303,126.023 162.530 C 126.531 160.990,126.868 160.419,131.028 154.041 C 136.167 146.162,145.557 136.241,152.000 131.883 C 158.287 127.630,159.726 126.772,164.400 124.497 C 168.583 122.460,170.578 121.640,174.000 120.552 C 174.990 120.237,176.880 119.633,178.200 119.210 C 179.520 118.786,182.220 118.148,184.200 117.791 C 186.180 117.434,188.700 116.961,189.800 116.741 C 193.239 116.053,207.134 116.181,215.200 116.976 C 224.805 117.923,243.666 116.877,246.750 115.227 C 249.814 113.587,255.192 112.988,259.503 113.805 " stroke="none" fill="#6c9824" fill-rule="evenodd"></path><path id="path4" d="M265.505 75.587 C 264.463 75.777,263.334 76.209,262.996 76.547 C 262.657 76.886,261.295 77.285,259.969 77.435 C 258.642 77.585,256.919 78.033,256.140 78.431 C 253.780 79.634,233.459 80.683,225.025 80.037 C 209.182 78.823,182.837 79.098,180.699 80.498 C 180.202 80.824,178.236 81.219,176.316 81.379 C 174.215 81.554,172.248 81.967,171.358 82.421 C 170.547 82.835,168.823 83.293,167.528 83.440 C 166.232 83.587,164.767 84.026,164.270 84.416 C 163.774 84.806,162.518 85.253,161.479 85.409 C 160.441 85.565,159.188 86.005,158.695 86.388 C 158.203 86.771,157.080 87.215,156.200 87.374 C 155.320 87.534,154.240 87.988,153.800 88.383 C 153.360 88.778,152.350 89.217,151.555 89.358 C 150.760 89.500,149.803 89.954,149.429 90.368 C 149.054 90.782,148.154 91.232,147.429 91.368 C 146.703 91.504,145.806 91.951,145.434 92.362 C 145.063 92.772,144.242 93.212,143.610 93.338 C 142.978 93.464,142.132 93.913,141.731 94.334 C 141.329 94.756,140.550 95.238,140.000 95.405 C 139.450 95.573,138.506 96.122,137.902 96.627 C 137.298 97.132,136.443 97.659,136.002 97.799 C 135.561 97.939,135.200 98.219,135.200 98.422 C 135.200 98.624,134.615 99.037,133.900 99.339 C 133.185 99.642,132.257 100.274,131.838 100.745 C 131.419 101.215,130.900 101.600,130.684 101.600 C 130.468 101.600,129.887 102.005,129.393 102.500 C 128.899 102.995,127.619 104.026,126.548 104.792 C 122.108 107.966,107.200 122.919,107.200 124.198 C 107.200 124.369,106.748 124.979,106.196 125.554 C 103.885 127.959,103.600 128.302,103.600 128.670 C 103.600 128.882,103.060 129.661,102.400 130.400 C 101.740 131.139,101.200 132.028,101.200 132.376 C 101.200 132.723,100.840 133.232,100.400 133.507 C 99.960 133.782,99.600 134.251,99.600 134.548 C 99.600 134.846,99.060 135.769,98.400 136.600 C 97.740 137.431,97.200 138.327,97.200 138.593 C 97.200 138.859,96.850 139.393,96.423 139.779 C 95.995 140.166,95.521 141.049,95.369 141.741 C 95.217 142.434,94.757 143.235,94.347 143.522 C 93.938 143.809,93.491 144.743,93.354 145.597 C 93.217 146.452,92.867 147.242,92.575 147.354 C 92.283 147.466,91.824 148.332,91.554 149.279 C 91.285 150.225,90.757 151.360,90.381 151.800 C 90.006 152.240,89.572 153.310,89.417 154.179 C 89.261 155.047,88.798 156.185,88.387 156.707 C 87.977 157.229,87.516 158.499,87.364 159.528 C 87.212 160.558,86.765 161.814,86.370 162.321 C 85.975 162.827,85.529 164.267,85.378 165.521 C 85.228 166.774,84.831 168.112,84.496 168.494 C 84.149 168.889,83.697 170.710,83.444 172.734 C 83.200 174.684,82.761 176.567,82.469 176.918 C 81.997 177.485,81.651 180.219,81.065 188.000 C 80.973 189.210,80.690 190.920,80.434 191.800 C 79.742 194.181,79.838 208.095,80.569 211.487 C 80.891 212.979,81.344 217.530,81.576 221.600 C 81.815 225.813,82.256 229.846,82.598 230.964 C 83.484 233.853,83.480 255.898,82.594 257.612 C 82.260 258.257,81.796 260.693,81.561 263.025 C 81.264 265.976,80.885 267.687,80.317 268.650 C 78.752 271.303,78.916 287.418,80.519 288.591 C 80.827 288.816,81.212 289.900,81.374 291.000 C 81.536 292.100,81.982 293.360,82.366 293.800 C 82.750 294.240,83.285 295.375,83.554 296.321 C 83.824 297.268,84.288 298.136,84.586 298.250 C 84.884 298.364,85.246 298.928,85.390 299.502 C 85.534 300.076,86.090 301.067,86.626 301.704 C 87.162 302.340,87.600 303.116,87.600 303.427 C 87.600 303.739,87.960 304.218,88.400 304.493 C 88.840 304.768,89.200 305.220,89.200 305.499 C 89.200 305.777,89.650 306.397,90.200 306.875 C 90.750 307.353,91.200 307.939,91.200 308.178 C 91.200 309.256,99.385 316.800,100.555 316.800 C 100.910 316.800,101.200 317.074,101.200 317.409 C 101.200 317.743,101.695 318.230,102.300 318.490 C 102.905 318.751,103.729 319.294,104.131 319.698 C 104.532 320.102,105.394 320.539,106.045 320.669 C 106.696 320.799,107.408 321.241,107.627 321.650 C 107.867 322.099,108.669 322.498,109.647 322.654 C 110.539 322.797,111.358 323.145,111.466 323.429 C 111.712 324.068,113.769 324.812,115.160 324.764 C 116.073 324.732,116.029 324.679,114.800 324.330 C 114.030 324.111,113.130 323.694,112.800 323.403 C 112.470 323.112,111.443 322.673,110.517 322.426 C 109.591 322.180,108.722 321.797,108.585 321.576 C 108.449 321.355,107.541 320.800,106.569 320.343 C 105.596 319.886,104.800 319.352,104.800 319.156 C 104.800 318.960,104.547 318.800,104.238 318.800 C 103.748 318.800,101.642 317.301,99.530 315.448 C 99.162 315.125,98.442 314.647,97.930 314.385 C 96.935 313.876,94.436 311.371,92.800 309.242 C 92.250 308.526,90.856 306.739,89.702 305.270 C 88.548 303.802,87.603 302.388,87.602 302.129 C 87.601 301.869,87.350 301.407,87.043 301.101 C 85.967 300.024,81.600 290.987,81.600 289.836 C 81.600 289.458,81.195 288.215,80.700 287.074 C 79.371 284.011,79.353 272.927,80.672 269.600 C 83.387 262.751,84.816 234.076,82.824 226.421 C 82.271 224.300,81.261 212.858,80.925 204.921 C 80.613 197.560,81.843 180.587,82.821 178.760 C 83.037 178.357,83.412 176.536,83.654 174.714 C 83.897 172.891,84.351 170.901,84.663 170.290 C 84.975 169.680,85.421 168.150,85.653 166.890 C 85.885 165.631,86.397 163.880,86.792 163.000 C 87.187 162.120,87.637 160.770,87.794 160.000 C 87.950 159.230,88.304 158.240,88.579 157.800 C 88.854 157.360,89.308 156.280,89.588 155.400 C 89.868 154.520,90.416 153.260,90.805 152.600 C 91.195 151.940,91.635 150.827,91.783 150.128 C 91.930 149.428,92.301 148.648,92.605 148.396 C 92.910 148.143,93.371 147.275,93.630 146.468 C 93.889 145.661,94.330 144.730,94.611 144.400 C 94.891 144.070,95.412 143.170,95.768 142.400 C 96.124 141.630,97.036 140.010,97.795 138.800 C 98.554 137.590,99.304 136.330,99.461 136.000 C 99.726 135.447,101.878 132.282,103.800 129.620 C 104.240 129.011,104.954 127.992,105.387 127.356 C 105.820 126.720,106.540 125.811,106.987 125.335 C 107.434 124.859,108.160 123.985,108.600 123.393 C 113.344 117.009,125.122 106.000,132.558 101.000 C 133.212 100.560,134.138 99.930,134.614 99.600 C 135.091 99.270,136.003 98.656,136.640 98.236 C 137.278 97.816,138.440 97.051,139.222 96.536 C 140.003 96.021,140.830 95.600,141.060 95.600 C 141.289 95.600,141.787 95.256,142.167 94.836 C 142.548 94.416,143.319 93.957,143.881 93.815 C 144.443 93.674,145.552 93.118,146.344 92.579 C 147.137 92.041,148.059 91.596,148.393 91.591 C 148.727 91.586,149.450 91.230,150.000 90.800 C 150.550 90.370,151.190 90.014,151.421 90.009 C 151.653 90.004,152.733 89.568,153.821 89.041 C 154.910 88.513,156.520 87.859,157.400 87.588 C 158.280 87.317,159.190 86.946,159.423 86.763 C 159.656 86.580,160.826 86.156,162.023 85.822 C 163.220 85.487,165.280 84.870,166.600 84.451 C 170.819 83.110,174.006 82.359,180.200 81.242 C 181.520 81.005,183.500 80.597,184.600 80.336 C 187.893 79.556,212.894 79.688,219.883 80.522 C 226.859 81.354,238.234 81.408,244.225 80.637 C 246.631 80.327,250.130 79.948,252.000 79.794 C 253.870 79.640,256.390 79.186,257.600 78.786 C 258.810 78.386,260.430 77.935,261.200 77.784 C 261.970 77.633,263.410 77.129,264.400 76.665 C 269.712 74.173,284.011 76.220,290.800 80.444 C 291.130 80.649,292.030 81.133,292.800 81.518 C 298.324 84.286,306.539 91.256,309.600 95.772 C 310.150 96.584,310.787 97.462,311.014 97.724 C 311.822 98.652,314.024 102.082,314.615 103.332 C 314.945 104.029,315.464 105.050,315.770 105.600 C 316.694 107.261,318.332 110.948,318.526 111.800 C 318.637 112.290,318.725 112.089,318.754 111.280 C 318.803 109.873,317.837 107.600,317.190 107.600 C 316.975 107.600,316.800 107.052,316.800 106.382 C 316.800 105.634,316.434 104.798,315.852 104.215 C 315.330 103.694,314.786 102.798,314.642 102.223 C 314.498 101.649,314.069 100.867,313.690 100.484 C 313.310 100.102,312.777 99.291,312.503 98.683 C 312.230 98.075,311.735 97.473,311.403 97.346 C 311.072 97.219,310.800 96.862,310.800 96.555 C 310.800 96.247,310.350 95.603,309.800 95.125 C 309.250 94.647,308.800 93.996,308.800 93.679 C 308.800 92.981,303.841 88.154,302.300 87.352 C 301.695 87.037,301.200 86.600,301.200 86.381 C 301.200 86.162,300.714 85.762,300.119 85.491 C 299.524 85.221,298.633 84.595,298.137 84.100 C 297.642 83.605,296.958 83.200,296.618 83.200 C 296.278 83.200,296.000 83.010,296.000 82.778 C 296.000 82.545,295.214 82.007,294.253 81.582 C 293.292 81.157,292.298 80.559,292.044 80.253 C 291.790 79.947,291.031 79.586,290.359 79.452 C 289.686 79.317,288.702 78.866,288.172 78.450 C 287.643 78.033,286.369 77.566,285.343 77.412 C 284.316 77.258,282.972 76.760,282.357 76.305 C 281.100 75.376,269.400 74.877,265.505 75.587 M318.800 113.171 C 318.800 113.429,319.115 114.216,319.500 114.920 C 320.577 116.889,320.530 129.491,319.437 131.916 C 318.655 133.652,318.887 134.826,319.730 133.397 C 321.428 130.518,321.164 114.664,319.393 113.194 C 318.953 112.829,318.800 112.823,318.800 113.171 M250.800 114.372 C 250.030 114.519,252.190 114.643,255.600 114.646 C 259.538 114.650,261.216 114.542,260.200 114.349 C 258.282 113.986,252.755 113.999,250.800 114.372 M247.385 115.413 C 246.936 115.728,245.316 116.146,243.785 116.342 L 241.000 116.699 243.400 116.747 C 246.236 116.804,248.630 116.220,248.948 115.392 C 249.232 114.650,248.458 114.661,247.385 115.413 M262.613 115.590 C 263.047 116.025,264.032 116.477,264.801 116.594 L 266.200 116.807 264.931 116.215 C 264.232 115.889,263.547 115.438,263.407 115.211 C 263.267 114.985,262.853 114.800,262.488 114.800 C 261.909 114.800,261.926 114.903,262.613 115.590 M197.282 116.696 C 198.758 116.773,201.278 116.773,202.882 116.697 C 204.487 116.621,203.280 116.558,200.200 116.558 C 197.120 116.557,195.807 116.619,197.282 116.696 M189.600 117.253 C 189.050 117.474,186.980 117.894,185.000 118.185 C 181.813 118.653,181.637 118.719,183.471 118.757 C 186.341 118.817,191.571 118.045,192.789 117.382 C 194.076 116.682,191.300 116.569,189.600 117.253 M208.200 117.428 C 212.089 118.974,236.921 119.076,239.634 117.558 C 241.164 116.702,239.504 116.622,235.851 117.377 C 232.409 118.088,219.700 118.214,215.000 117.583 C 213.460 117.377,210.940 117.114,209.400 117.000 L 206.600 116.792 208.200 117.428 M266.400 117.177 C 266.400 117.722,268.054 118.800,268.889 118.800 C 269.280 118.800,269.600 118.978,269.600 119.195 C 269.600 119.412,270.275 120.023,271.100 120.553 C 273.521 122.109,276.854 125.604,277.713 127.489 C 277.942 127.990,278.279 128.400,278.462 128.400 C 278.646 128.400,279.177 129.210,279.642 130.200 C 280.107 131.190,280.632 132.000,280.809 132.000 C 280.985 132.000,281.250 132.715,281.398 133.588 C 281.546 134.462,282.041 135.653,282.500 136.236 C 283.756 137.834,283.746 146.081,282.485 147.826 C 281.815 148.754,281.583 149.837,281.377 153.000 C 281.234 155.200,280.866 157.771,280.559 158.714 C 279.884 160.785,279.788 174.905,280.432 177.400 C 280.660 178.280,281.095 181.553,281.399 184.674 C 281.723 187.993,282.211 190.849,282.576 191.554 C 283.484 193.310,283.495 210.269,282.589 212.021 C 282.253 212.670,281.784 215.226,281.546 217.701 C 281.276 220.503,280.895 222.447,280.536 222.854 C 280.218 223.214,279.756 224.744,279.509 226.254 C 279.262 227.764,278.748 229.450,278.367 230.000 C 277.986 230.550,277.553 231.710,277.404 232.579 C 277.256 233.447,276.794 234.590,276.378 235.119 C 275.961 235.648,275.499 236.738,275.350 237.541 C 275.200 238.343,274.753 239.230,274.355 239.511 C 273.957 239.793,273.507 240.693,273.355 241.511 C 273.203 242.330,272.746 243.235,272.339 243.523 C 271.933 243.810,271.600 244.291,271.600 244.592 C 271.600 244.893,271.175 245.647,270.655 246.269 C 270.135 246.891,269.580 247.813,269.422 248.318 C 269.264 248.823,268.773 249.633,268.331 250.118 C 266.792 251.807,265.200 254.114,265.200 254.655 C 265.200 254.955,264.936 255.200,264.614 255.200 C 264.292 255.200,263.815 255.605,263.554 256.100 C 263.294 256.595,262.734 257.360,262.310 257.800 C 261.886 258.240,260.029 260.175,258.183 262.100 C 256.337 264.025,254.635 265.600,254.401 265.600 C 254.167 265.600,253.869 265.877,253.739 266.215 C 253.609 266.553,252.985 267.098,252.352 267.425 C 251.718 267.753,251.200 268.286,251.200 268.610 C 251.200 268.935,250.868 269.200,250.462 269.200 C 250.056 269.200,249.382 269.578,248.963 270.041 C 248.544 270.503,247.661 271.158,247.001 271.495 C 246.340 271.832,245.656 272.354,245.480 272.654 C 245.304 272.954,244.924 273.200,244.635 273.200 C 244.346 273.200,243.431 273.740,242.600 274.400 C 241.769 275.060,240.783 275.600,240.407 275.600 C 240.031 275.600,239.423 275.932,239.056 276.339 C 238.688 276.745,237.691 277.286,236.841 277.540 C 235.991 277.795,235.070 278.274,234.796 278.605 C 234.521 278.936,233.611 279.317,232.773 279.451 C 231.935 279.585,230.908 280.012,230.491 280.401 C 230.074 280.789,228.938 281.237,227.967 281.396 C 226.995 281.555,225.660 282.012,225.000 282.412 C 224.340 282.812,222.630 283.261,221.200 283.410 C 219.770 283.559,217.920 284.022,217.088 284.440 C 213.616 286.184,187.367 286.127,183.731 284.367 C 181.438 283.257,164.597 283.353,161.800 284.492 C 160.920 284.850,158.629 285.262,156.709 285.407 C 154.251 285.592,152.946 285.885,152.296 286.396 C 150.083 288.137,137.728 288.132,136.508 286.390 C 136.195 285.943,135.274 285.493,134.378 285.350 C 133.476 285.206,132.800 284.874,132.800 284.576 C 132.800 284.289,132.425 283.935,131.966 283.789 C 130.891 283.448,126.800 280.394,126.800 279.933 C 126.800 279.739,126.350 279.409,125.800 279.200 C 125.250 278.991,124.800 278.577,124.800 278.280 C 124.800 277.983,124.365 277.331,123.834 276.832 C 123.302 276.333,122.760 275.496,122.629 274.974 C 122.498 274.451,122.033 273.832,121.595 273.597 C 121.158 273.363,120.800 272.832,120.800 272.417 C 120.800 272.001,120.376 271.153,119.858 270.531 C 119.339 269.909,118.794 268.738,118.645 267.929 C 118.356 266.354,116.837 264.102,116.813 265.211 C 116.806 265.547,117.044 266.177,117.343 266.611 C 117.642 267.045,118.120 268.120,118.406 269.000 C 118.692 269.880,119.226 271.050,119.593 271.600 C 119.960 272.150,120.832 273.439,121.530 274.465 C 122.229 275.491,122.800 276.428,122.800 276.547 C 122.800 276.666,123.223 277.187,123.741 277.705 C 124.258 278.222,124.753 278.823,124.841 279.039 C 125.058 279.577,129.570 283.214,131.243 284.200 C 138.309 288.366,142.637 289.399,148.081 288.222 C 149.906 287.827,152.300 287.165,153.400 286.750 C 158.320 284.896,178.705 283.657,182.974 284.952 C 189.683 286.987,211.973 286.983,217.800 284.945 C 218.680 284.637,220.708 284.126,222.307 283.810 C 223.905 283.495,225.610 282.958,226.096 282.618 C 226.581 282.278,227.313 282.000,227.722 282.000 C 228.980 282.000,237.169 278.273,241.400 275.775 C 242.280 275.255,243.630 274.457,244.400 274.001 C 245.170 273.545,246.520 272.632,247.400 271.972 C 248.280 271.312,249.646 270.345,250.436 269.822 C 251.977 268.801,257.903 263.321,260.573 260.449 C 264.736 255.968,265.603 254.952,265.821 254.300 C 265.949 253.915,266.218 253.600,266.419 253.600 C 266.620 253.600,267.152 252.925,267.602 252.100 C 268.052 251.275,269.129 249.619,269.995 248.420 C 270.861 247.220,271.778 245.735,272.033 245.120 C 272.288 244.504,272.641 244.000,272.818 244.000 C 272.994 244.000,273.358 243.325,273.627 242.500 C 273.896 241.675,274.450 240.571,274.858 240.046 C 275.266 239.521,275.600 238.873,275.600 238.606 C 275.600 238.338,276.029 237.312,276.554 236.325 C 277.078 235.339,277.638 233.917,277.797 233.166 C 277.956 232.415,278.408 231.260,278.801 230.600 C 279.194 229.940,279.646 228.590,279.805 227.600 C 279.964 226.610,280.366 225.270,280.698 224.623 C 281.029 223.975,281.549 221.666,281.853 219.491 C 282.157 217.316,282.623 215.146,282.889 214.668 C 283.559 213.464,283.841 194.199,283.232 191.200 C 281.899 184.634,281.600 182.307,281.149 175.000 C 280.596 166.052,281.396 152.001,282.605 149.439 C 284.361 145.714,284.381 137.015,282.638 134.800 C 282.378 134.470,281.925 133.492,281.631 132.627 C 281.336 131.762,280.935 130.862,280.740 130.627 C 280.544 130.392,279.622 129.035,278.692 127.611 C 276.959 124.959,273.473 121.312,271.121 119.689 C 267.063 116.890,266.400 116.537,266.400 117.177 M179.309 119.251 C 179.061 119.499,177.900 119.933,176.729 120.217 C 174.809 120.681,174.737 120.735,176.000 120.764 C 177.841 120.806,180.189 120.136,180.806 119.393 C 181.419 118.654,180.037 118.523,179.309 119.251 M173.004 121.194 C 172.870 121.410,171.915 121.863,170.880 122.201 L 169.000 122.814 170.994 122.602 C 172.954 122.393,175.535 120.800,173.912 120.800 C 173.547 120.800,173.138 120.977,173.004 121.194 M167.654 123.335 C 167.409 123.630,166.446 124.099,165.512 124.379 C 164.579 124.659,163.382 125.228,162.853 125.644 C 162.325 126.060,161.701 126.400,161.468 126.400 C 161.234 126.400,160.403 126.823,159.622 127.340 C 158.840 127.857,157.300 128.842,156.200 129.529 C 155.100 130.217,154.015 130.933,153.790 131.122 C 153.564 131.310,152.847 131.810,152.196 132.232 C 151.546 132.654,150.706 133.270,150.331 133.600 C 149.956 133.930,148.983 134.740,148.170 135.400 C 140.858 141.333,131.735 152.266,128.394 159.100 C 127.937 160.035,127.433 160.800,127.275 160.800 C 127.117 160.800,126.668 161.700,126.277 162.800 C 125.887 163.900,125.395 164.800,125.184 164.800 C 124.973 164.800,124.800 165.070,124.800 165.400 C 124.800 165.730,124.975 166.000,125.190 166.000 C 125.659 166.000,126.800 163.889,126.800 163.020 C 126.800 162.679,127.155 162.045,127.590 161.610 C 128.024 161.176,128.498 160.351,128.642 159.777 C 128.786 159.202,129.330 158.306,129.852 157.785 C 130.373 157.263,130.800 156.378,130.800 155.818 C 130.800 155.165,131.022 154.800,131.420 154.800 C 131.762 154.800,132.304 154.170,132.626 153.400 C 132.948 152.630,133.368 152.000,133.560 152.000 C 133.752 152.000,134.207 151.372,134.571 150.605 C 134.935 149.838,135.585 149.022,136.016 148.791 C 136.447 148.561,136.800 148.018,136.800 147.586 C 136.800 147.154,137.064 146.800,137.386 146.800 C 137.708 146.800,138.177 146.416,138.428 145.948 C 139.030 144.824,146.932 136.988,147.800 136.655 C 148.172 136.513,148.570 136.037,148.685 135.598 C 148.799 135.159,149.163 134.800,149.492 134.800 C 150.062 134.800,151.665 133.657,153.837 131.700 C 154.387 131.205,155.099 130.800,155.421 130.800 C 155.742 130.800,156.397 130.350,156.875 129.800 C 157.353 129.250,158.080 128.800,158.490 128.800 C 158.901 128.800,159.686 128.350,160.236 127.800 C 160.786 127.250,161.510 126.800,161.844 126.800 C 162.586 126.800,164.055 126.045,164.600 125.384 C 164.820 125.117,165.613 124.786,166.362 124.647 C 167.776 124.386,168.800 123.757,168.800 123.151 C 168.800 122.625,168.158 122.728,167.654 123.335 M318.237 136.600 C 318.064 137.920,317.672 139.720,317.367 140.600 C 317.061 141.480,316.824 142.740,316.838 143.400 L 316.865 144.600 317.607 143.005 C 318.344 141.422,319.034 136.423,318.718 134.962 C 318.627 134.543,318.411 135.280,318.237 136.600 M316.579 158.400 C 316.579 165.770,316.633 168.785,316.699 165.100 C 316.765 161.415,316.765 155.385,316.699 151.700 C 316.633 148.015,316.579 151.030,316.579 158.400 M124.212 167.500 C 124.061 168.105,123.692 168.873,123.391 169.206 C 123.091 169.540,122.645 170.710,122.400 171.806 C 122.156 172.903,121.684 174.216,121.353 174.724 C 121.021 175.233,120.820 175.859,120.905 176.116 C 121.180 176.941,122.465 174.489,122.687 172.715 C 122.806 171.772,123.247 170.621,123.667 170.157 C 124.088 169.694,124.538 168.659,124.668 167.857 C 124.944 166.155,124.613 165.895,124.212 167.500 M316.800 173.551 C 316.800 173.964,317.070 174.948,317.400 175.738 C 317.730 176.527,318.170 178.664,318.378 180.487 L 318.757 183.800 318.621 179.789 C 318.539 177.361,318.240 175.191,317.863 174.289 C 317.180 172.655,316.800 172.391,316.800 173.551 M120.261 178.607 C 120.125 179.601,119.729 180.963,119.382 181.634 C 119.035 182.305,118.813 183.247,118.887 183.727 C 119.136 185.327,120.408 182.240,120.674 179.389 C 120.948 176.450,120.637 175.861,120.261 178.607 M318.930 185.839 C 319.068 186.697,319.388 188.300,319.642 189.400 C 320.256 192.065,320.245 211.496,319.628 214.200 C 318.472 219.265,318.812 221.717,320.084 217.483 C 320.821 215.028,320.810 188.393,320.071 186.306 C 319.314 184.167,318.614 183.881,318.930 185.839 M118.233 188.212 C 118.080 190.101,117.695 193.121,117.378 194.923 C 116.629 199.178,116.648 202.959,117.445 208.288 C 117.799 210.660,118.223 214.670,118.385 217.200 L 118.681 221.800 118.740 217.875 C 118.773 215.716,118.600 211.306,118.355 208.075 C 118.014 203.571,118.030 200.216,118.424 193.702 C 118.925 185.399,118.786 181.395,118.233 188.212 M318.266 223.374 C 318.128 225.009,317.724 227.073,317.369 227.960 C 316.527 230.064,316.855 231.017,317.796 229.202 C 318.281 228.268,318.586 226.578,318.715 224.102 C 318.947 219.681,318.623 219.155,318.266 223.374 M119.055 226.800 C 119.479 232.448,119.484 237.406,119.073 242.400 C 118.765 246.132,118.772 246.179,119.454 245.000 C 120.850 242.589,120.599 223.982,119.152 222.617 C 118.829 222.313,118.803 223.441,119.055 226.800 M316.312 232.708 C 316.160 233.867,315.722 235.347,315.339 235.996 C 314.544 237.341,314.910 238.140,315.786 236.971 C 316.457 236.075,316.929 233.470,316.728 231.776 C 316.623 230.890,316.520 231.120,316.312 232.708 M314.400 239.115 C 314.400 239.729,314.033 240.944,313.585 241.815 C 313.137 242.687,312.587 244.207,312.362 245.194 C 312.138 246.180,311.666 247.306,311.313 247.696 C 310.960 248.086,310.795 248.528,310.945 248.679 C 311.484 249.217,312.465 247.679,312.682 245.955 C 312.803 244.990,313.250 243.817,313.675 243.349 C 314.412 242.537,315.244 238.000,314.656 238.000 C 314.515 238.000,314.400 238.502,314.400 239.115 M118.326 249.470 C 118.175 251.048,117.770 252.885,117.426 253.550 C 116.484 255.371,116.595 256.488,117.590 255.200 C 118.442 254.096,118.932 251.176,118.731 248.400 C 118.616 246.815,118.567 246.943,118.326 249.470 M310.430 249.800 C 310.412 250.240,310.074 251.140,309.679 251.800 C 309.285 252.460,308.640 253.855,308.248 254.900 C 307.855 255.945,307.397 256.800,307.230 256.800 C 307.063 256.800,306.713 257.512,306.452 258.383 C 306.191 259.254,305.808 260.071,305.600 260.200 C 305.393 260.328,304.849 261.191,304.391 262.117 C 302.715 265.512,297.876 272.998,295.349 276.106 C 294.592 277.038,293.664 278.208,293.286 278.706 C 288.063 285.603,276.674 296.646,270.400 300.898 C 269.850 301.271,268.680 302.119,267.800 302.784 C 266.920 303.449,265.705 304.192,265.100 304.436 C 264.495 304.679,264.000 305.044,264.000 305.246 C 264.000 305.448,263.325 305.925,262.500 306.306 C 261.675 306.688,260.909 307.119,260.799 307.264 C 260.524 307.624,257.316 309.434,255.600 310.197 C 254.830 310.539,253.930 310.998,253.600 311.217 C 253.270 311.436,252.460 311.875,251.800 312.192 L 250.600 312.769 251.669 312.784 C 252.257 312.793,253.247 312.373,253.869 311.852 C 254.491 311.330,255.594 310.774,256.319 310.616 C 257.045 310.458,257.853 309.984,258.115 309.564 C 258.378 309.144,258.895 308.800,259.266 308.800 C 259.636 308.800,260.447 308.388,261.069 307.884 C 261.691 307.381,262.700 306.752,263.311 306.488 C 263.922 306.223,264.527 305.735,264.654 305.403 C 264.781 305.072,265.235 304.800,265.661 304.800 C 266.087 304.800,266.886 304.350,267.436 303.800 C 267.986 303.250,268.616 302.800,268.836 302.800 C 269.056 302.800,269.672 302.364,270.205 301.831 C 270.738 301.298,271.531 300.749,271.967 300.611 C 272.403 300.472,272.870 300.008,273.006 299.580 C 273.143 299.151,273.513 298.800,273.831 298.800 C 274.148 298.800,274.957 298.305,275.629 297.700 C 276.301 297.095,277.394 296.150,278.058 295.600 C 281.462 292.781,291.377 282.474,293.075 279.990 C 293.447 279.445,293.988 278.856,294.276 278.680 C 294.564 278.504,294.800 278.009,294.800 277.580 C 294.800 277.151,295.052 276.800,295.360 276.800 C 295.876 276.800,296.334 276.207,298.600 272.602 C 299.040 271.902,299.715 271.018,300.100 270.636 C 300.485 270.255,300.800 269.757,300.800 269.529 C 300.800 269.302,301.250 268.581,301.800 267.927 C 302.350 267.273,302.800 266.399,302.800 265.983 C 302.800 265.568,303.145 265.043,303.567 264.817 C 303.990 264.591,304.450 263.884,304.590 263.245 C 304.731 262.606,305.185 261.776,305.600 261.400 C 306.015 261.024,306.478 260.151,306.629 259.459 C 306.780 258.766,307.330 257.691,307.852 257.069 C 308.373 256.447,308.800 255.530,308.800 255.031 C 308.800 254.532,309.156 253.801,309.592 253.407 C 310.415 252.663,311.036 250.429,310.672 249.521 C 310.551 249.219,310.449 249.336,310.430 249.800 M116.548 260.400 C 116.548 262.710,116.614 263.655,116.695 262.500 C 116.776 261.345,116.776 259.455,116.695 258.300 C 116.614 257.145,116.548 258.090,116.548 260.400 M249.262 313.300 C 248.989 313.575,248.188 314.027,247.482 314.305 L 246.200 314.810 247.736 314.624 C 249.270 314.439,250.400 313.814,250.400 313.151 C 250.400 312.646,249.841 312.719,249.262 313.300 M244.423 315.372 C 244.162 315.687,243.054 316.137,241.963 316.371 C 240.871 316.605,239.563 317.068,239.058 317.399 C 238.552 317.730,237.089 318.196,235.806 318.433 C 234.524 318.670,233.090 319.115,232.621 319.423 C 232.151 319.731,230.784 320.160,229.584 320.376 L 227.400 320.769 230.144 320.627 C 232.146 320.523,233.197 320.257,234.028 319.643 C 234.660 319.175,235.772 318.800,236.524 318.800 C 238.289 318.800,240.278 318.096,240.555 317.372 C 240.680 317.048,241.307 316.800,242.000 316.800 C 243.480 316.800,246.000 315.805,246.000 315.220 C 246.000 314.608,244.976 314.706,244.423 315.372 M166.905 320.687 C 167.514 320.779,168.414 320.777,168.905 320.682 C 169.397 320.587,168.900 320.511,167.800 320.514 C 166.700 320.517,166.297 320.595,166.905 320.687 M154.496 321.248 C 153.779 321.455,151.169 321.885,148.696 322.202 L 144.200 322.780 149.200 322.574 C 153.871 322.382,161.923 321.410,162.346 320.988 C 162.693 320.640,155.813 320.868,154.496 321.248 M173.200 321.020 C 173.200 321.744,176.631 322.509,180.400 322.625 L 184.600 322.754 181.096 322.385 C 179.169 322.182,177.063 321.743,176.416 321.408 C 175.279 320.821,173.200 320.570,173.200 321.020 M224.500 321.434 C 223.786 321.746,221.716 322.158,219.900 322.348 L 216.600 322.694 219.600 322.729 C 223.270 322.773,225.866 322.306,226.725 321.447 C 227.576 320.595,226.433 320.589,224.500 321.434 M141.800 323.290 C 141.360 323.546,140.100 323.976,139.000 324.244 C 136.786 324.784,138.092 325.008,140.822 324.556 C 142.552 324.270,144.713 322.816,143.400 322.821 C 142.960 322.823,142.240 323.034,141.800 323.290 M184.952 323.122 C 186.157 325.071,211.924 325.364,215.426 323.468 L 216.600 322.832 215.400 322.816 C 214.740 322.807,212.940 323.067,211.400 323.393 C 208.233 324.064,194.540 324.191,190.800 323.585 C 185.580 322.738,184.670 322.666,184.952 323.122 M117.110 325.586 C 119.636 327.692,138.808 327.075,136.689 324.955 C 136.544 324.810,135.924 325.031,135.312 325.446 C 133.700 326.539,120.498 326.582,118.520 325.500 C 116.820 324.571,115.956 324.623,117.110 325.586 " stroke="none" fill="#4c5c26" fill-rule="evenodd"></path></g></svg>