<?xml version="1.0" standalone="no"?>
<!DOCTYPE svg PUBLIC "-//W3C//DTD SVG 20010904//EN"
 "http://www.w3.org/TR/2001/REC-SVG-20010904/DTD/svg10.dtd">
<svg version="1.0" xmlns="http://www.w3.org/2000/svg"
 width="130.000000pt" height="130.000000pt" viewBox="0 0 130.000000 130.000000"
 preserveAspectRatio="xMidYMid meet">

<g transform="translate(0.000000,130.000000) scale(0.100000,-0.100000)"
fill="#000000" stroke="none">
<path d="M534 875 c-6 -25 -15 -31 -27 -18 -4 3 1 12 11 19 14 11 15 13 2 14
-19 0 -40 -19 -40 -37 0 -7 9 -13 21 -13 15 0 19 -4 15 -16 -4 -10 -1 -14 6
-12 7 3 16 19 20 36 11 42 26 41 23 0 -2 -20 -8 -32 -15 -30 -8 2 -10 -3 -6
-13 8 -22 -24 -15 -46 10 -18 21 -24 10 -8 -15 8 -13 -5 -48 -36 -90 -18 -25
-65 -110 -61 -110 5 0 86 120 105 156 8 15 22 24 37 24 25 0 64 42 45 48 -5 2
-10 8 -10 13 0 6 5 7 10 4 15 -9 12 8 -6 33 -20 29 -32 28 -40 -3z"/>
<path d="M987 776 c-3 -8 1 -20 9 -27 13 -10 17 -10 25 2 5 8 7 19 6 24 -6 16
-34 17 -40 1z"/>
<path d="M675 670 c10 -11 20 -20 23 -20 3 0 -3 9 -13 20 -10 11 -20 20 -23
20 -3 0 3 -9 13 -20z"/>
<path d="M731 603 c18 -20 39 -42 45 -49 7 -7 14 -10 18 -7 3 4 6 -1 6 -10 0
-9 5 -17 10 -17 6 0 10 -13 10 -29 0 -30 22 -61 43 -61 26 0 40 20 39 52 0 18
9 55 20 81 26 65 18 69 -13 7 -36 -74 -54 -73 -132 5 -69 69 -105 91 -46 28z
m159 -127 c0 -14 -20 -36 -33 -36 -5 0 -3 8 4 17 12 15 12 16 -3 10 -13 -5
-18 -1 -18 12 0 14 6 17 25 13 14 -2 25 -10 25 -16z"/>
<path d="M288 506 c-25 -18 -22 -36 5 -37 12 0 16 -3 9 -6 -6 -2 -10 -9 -6
-14 8 -14 44 9 44 29 0 17 -18 42 -29 42 -4 0 -14 -7 -23 -14z m28 -5 c-4 -5
0 -11 6 -14 7 -2 11 -7 8 -10 -9 -10 -33 10 -26 22 4 6 9 11 12 11 3 0 3 -4 0
-9z"/>
</g>
</svg>
